<?xml version="1.0" encoding="UTF-8"?>
<svg version="1.1" xmlns="http://www.w3.org/2000/svg" width="32" height="32">
<path d="M0 0 C10.56 0 21.12 0 32 0 C32 10.56 32 21.12 32 32 C21.44 32 10.88 32 0 32 C0 21.44 0 10.88 0 0 Z " fill="#925A3C" transform="translate(0,0)"/>
<path d="M0 0 C10.56 0 21.12 0 32 0 C32 7.92 32 15.84 32 24 C30.35 22.68 28.7 21.36 27 20 C27.66 19.01 28.32 18.02 29 17 C29.44792511 14.51060143 29.44792511 14.51060143 29 12 C25.70744347 7.84291746 21.09075488 5.63386607 15.9375 4.75 C12.05205208 4.56984013 9.94298521 5.23259133 6.875 7.625 C4.92915865 9.62591234 4.09052495 10.65600519 3.375 13.375 C3.93149901 15.71229583 4.66547326 17.71809581 5.5625 19.9375 C7.05656405 23.64810978 7.1200294 26.07989711 6 30 C5.67 30.66 5.34 31.32 5 32 C3.35 32 1.7 32 0 32 C0 21.44 0 10.88 0 0 Z " fill="#FAFAFA" transform="translate(0,0)"/>
<path d="M0 0 C8.37711823 -0.12242135 12.91116472 2.367092 19 8 C18.67 10.31 18.34 12.62 18 15 C14.66666667 15 11.33333333 15 8 15 C7.87625 14.21625 7.7525 13.4325 7.625 12.625 C7.20882007 9.85942178 7.20882007 9.85942178 5 8 C5.66 8 6.32 8 7 8 C7 7.34 7 6.68 7 6 C5.88625 6.061875 4.7725 6.12375 3.625 6.1875 C2.42875 6.125625 1.2325 6.06375 0 6 C-0.66 5.01 -1.32 4.02 -2 3 C-1.34 2.01 -0.68 1.02 0 0 Z " fill="#5A4E4F" transform="translate(11,4)"/>
<path d="M0 0 C0.66 0.33 1.32 0.66 2 1 C4.55157655 1.0716735 7.07472971 1.09308442 9.625 1.0625 C10.33140625 1.05798828 11.0378125 1.05347656 11.765625 1.04882812 C13.51045275 1.03703875 15.255237 1.01910324 17 1 C17.66 2.98 18.32 4.96 19 7 C13.72 7 8.44 7 3 7 C3 6.01 3 5.02 3 4 C2.67 4.99 2.34 5.98 2 7 C1.01 7 0.02 7 -1 7 C-0.67 4.69 -0.34 2.38 0 0 Z " fill="#0C0B12" transform="translate(7,24)"/>
<path d="M0 0 C0.66 0.33 1.32 0.66 2 1 C2 1.99 2 2.98 2 4 C4.31 4.33 6.62 4.66 9 5 C9 5.66 9 6.32 9 7 C8.071875 7.3403125 8.071875 7.3403125 7.125 7.6875 C4.38589791 9.37929835 3.94975528 10.99244161 3 14 C1.0625 13.625 1.0625 13.625 -1 13 C-1.33 12.34 -1.66 11.68 -2 11 C-1.34 10.67 -0.68 10.34 0 10 C-1.32 9.01 -2.64 8.02 -4 7 C-4.66 8.32 -5.32 9.64 -6 11 C-6.375 8.875 -6.375 8.875 -6 6 C-4.20659643 3.76086748 -2.16547337 1.87545461 0 0 Z " fill="#7B7276" transform="translate(9,5)"/>
<path d="M0 0 C4.93317299 0.43527997 7.68649274 2.3782595 11 6 C11 8.64 11 11.28 11 14 C2.09 14 -6.82 14 -16 14 C-15.67 13.34 -15.34 12.68 -15 12 C-14.01 12.33 -13.02 12.66 -12 13 C-12.33 12.01 -12.66 11.02 -13 10 C-12.34 10 -11.68 10 -11 10 C-11 10.99 -11 11.98 -11 13 C-7.37 13 -3.74 13 0 13 C0.33 12.34 0.66 11.68 1 11 C1 11.66 1 12.32 1 13 C2.98 12.67 4.96 12.34 7 12 C7.33 10.35 7.66 8.7 8 7 C7.195625 6.731875 6.39125 6.46375 5.5625 6.1875 C4.716875 5.795625 3.87125 5.40375 3 5 C2.67 4.01 2.34 3.02 2 2 C1.34 1.34 0.68 0.68 0 0 Z " fill="#BE9A7C" transform="translate(21,18)"/>
<path d="M0 0 C4.75 0.75 4.75 0.75 7 3 C8.32392972 4.01241685 9.65599167 5.01439389 11 6 C10.67 7.98 10.34 9.96 10 12 C8.125 11.8125 8.125 11.8125 6 11 C5.30341637 9.34561387 4.63903117 7.67745682 4 6 C2.67607028 4.98758315 1.34400833 3.98560611 0 3 C0 2.01 0 1.02 0 0 Z " fill="#A3592C" transform="translate(19,19)"/>
<path d="M0 0 C0.66 0.66 1.32 1.32 2 2 C4.58354218 2.16687448 4.58354218 2.16687448 7 2 C7.33 1.34 7.66 0.68 8 0 C8.66 0 9.32 0 10 0 C11.38232443 1.62626404 12.71937515 3.2925002 14 5 C12.12274106 6.87725894 9.07149693 6.21702304 6.5625 6.25 C5.38816406 6.27578125 4.21382812 6.3015625 3.00390625 6.328125 C2.01261719 6.21984375 1.02132813 6.1115625 0 6 C-0.66 5.01 -1.32 4.02 -2 3 C-1.34 2.01 -0.68 1.02 0 0 Z " fill="#E2C557" transform="translate(9,20)"/>
<path d="M0 0 C4.6292958 1.49771335 7.5907366 3.5907366 11 7 C11.375 9.8125 11.375 9.8125 11 12 C10.67 10.68 10.34 9.36 10 8 C7.69 8.66 5.38 9.32 3 10 C2.87625 9.195625 2.7525 8.39125 2.625 7.5625 C2.315625 6.2940625 2.315625 6.2940625 2 5 C1.34 4.67 0.68 4.34 0 4 C0 2.68 0 1.36 0 0 Z " fill="#655B65" transform="translate(19,5)"/>
<path d="M0 0 C0 0.66 0 1.32 0 2 C-0.66 2 -1.32 2 -2 2 C-2 2.66 -2 3.32 -2 4 C-5.3 4 -8.6 4 -12 4 C-12 3.34 -12 2.68 -12 2 C-10.7625 1.67 -9.525 1.34 -8.25 1 C-7.55390625 0.814375 -6.8578125 0.62875 -6.140625 0.4375 C-4 0 -4 0 0 0 Z " fill="#333238" transform="translate(23,27)"/>
<path d="M0 0 C0.99 0.33 1.98 0.66 3 1 C3.6875 3.0625 3.6875 3.0625 4 5 C2.35 5.33 0.7 5.66 -1 6 C-1.625 4.125 -1.625 4.125 -2 2 C-1.34 1.34 -0.68 0.68 0 0 Z " fill="#D4D4D4" transform="translate(16,13)"/>
<path d="M0 0 C-0.33 1.65 -0.66 3.3 -1 5 C-3.02045442 4.39816251 -5.02111039 3.72693904 -7 3 C-7.33 2.34 -7.66 1.68 -8 1 C-5.10765685 0.17361624 -3.11257569 0 0 0 Z " fill="#453B3C" transform="translate(29,15)"/>
<path d="M0 0 C3.125 -0.1875 3.125 -0.1875 6 0 C4.68 0.33 3.36 0.66 2 1 C1.67 2.32 1.34 3.64 1 5 C2.98 5 4.96 5 7 5 C7 5.33 7 5.66 7 6 C3.625 6.1875 3.625 6.1875 0 6 C-0.66 5.01 -1.32 4.02 -2 3 C-1.34 2.01 -0.68 1.02 0 0 Z " fill="#786A61" transform="translate(11,4)"/>
<path d="M0 0 C2.475 0.495 2.475 0.495 5 1 C5 2.32 5 3.64 5 5 C3.68 4.67 2.36 4.34 1 4 C0.67 2.68 0.34 1.36 0 0 Z " fill="#C95A2D" transform="translate(19,19)"/>
<path d="M0 0 C1.65 0.33 3.3 0.66 5 1 C5 1.99 5 2.98 5 4 C3.02 4 1.04 4 -1 4 C-0.67 2.68 -0.34 1.36 0 0 Z " fill="#503F44" transform="translate(13,5)"/>
<path d="M0 0 C0.66 1.98 1.32 3.96 2 6 C0.68 6 -0.64 6 -2 6 C-1.67 4.68 -1.34 3.36 -1 2 C-2.98 2 -4.96 2 -7 2 C-7 1.67 -7 1.34 -7 1 C-2.25 0 -2.25 0 0 0 Z " fill="#110E11" transform="translate(24,25)"/>
<path d="M0 0 C1.98 0.66 3.96 1.32 6 2 C5.34 2.45375 4.68 2.9075 4 3.375 C3.01 4.179375 3.01 4.179375 2 5 C2 5.66 2 6.32 2 7 C1.01 7 0.02 7 -1 7 C-0.67 4.69 -0.34 2.38 0 0 Z " fill="#302D2A" transform="translate(7,24)"/>
<path d="M0 0 C2.31 0 4.62 0 7 0 C7 0.66 7 1.32 7 2 C4.625 3.0625 4.625 3.0625 2 4 C1.34 3.67 0.68 3.34 0 3 C0 2.01 0 1.02 0 0 Z " fill="#F1D950" transform="translate(11,10)"/>
<path d="M0 0 C0.99 0.33 1.98 0.66 3 1 C2.67 2.32 2.34 3.64 2 5 C0.0625 4.625 0.0625 4.625 -2 4 C-2.33 3.34 -2.66 2.68 -3 2 C-2.01 2 -1.02 2 0 2 C0 1.34 0 0.68 0 0 Z " fill="#EDEFEF" transform="translate(10,14)"/>
<path d="M0 0 C-0.66 0 -1.32 0 -2 0 C-2.33 0.99 -2.66 1.98 -3 3 C-4.65 3 -6.3 3 -8 3 C-8 2.01 -8 1.02 -8 0 C-4.94736336 -0.98120464 -3.05263664 -0.98120464 0 0 Z " fill="#9E5537" transform="translate(19,20)"/>
<path d="M0 0 C0.66 0.33 1.32 0.66 2 1 C2 1.66 2 2.32 2 3 C2.99 3.33 3.98 3.66 5 4 C5 4.33 5 4.66 5 5 C3.02 5 1.04 5 -1 5 C-0.67 3.35 -0.34 1.7 0 0 Z " fill="#4D444B" transform="translate(5,11)"/>
</svg>
