<?xml version="1.0" encoding="UTF-8"?>
<svg version="1.1" xmlns="http://www.w3.org/2000/svg" width="128" height="128">
<path d="M0 0 C42.24 0 84.48 0 128 0 C128 42.24 128 84.48 128 128 C85.76 128 43.52 128 0 128 C0 85.76 0 43.52 0 0 Z " fill="#5D515B" transform="translate(0,0)"/>
<path d="M0 0 C42.24 0 84.48 0 128 0 C128 33.66 128 67.32 128 102 C126 99 126 99 124.95703125 97.09765625 C122.11840445 92.05013214 119.47482308 89.05170885 114 87 C111.02203671 86.17357956 108.04491804 85.52474778 105 85 C105.0625 82.1875 105.0625 82.1875 106 79 C108.31979381 77.96898053 110.65429915 76.97063483 113 76 C114.78379415 73.01647106 114.78379415 73.01647106 116 70 C116.99 69.34 117.98 68.68 119 68 C120.80318018 62.21849615 120.90808995 54.95525657 120 49 C117.73898055 45.05289026 114.88041379 43.25422882 111 41 C109.13819574 39.71936668 107.28376522 38.42793574 105.4375 37.125 C104.59058594 36.57070313 103.74367188 36.01640625 102.87109375 35.4453125 C101.94490234 34.72988281 101.94490234 34.72988281 101 34 C101 33.34 101 32.68 101 32 C100.29875 31.773125 99.5975 31.54625 98.875 31.3125 C96.02669131 30.01218516 94.07492852 28.39099234 91.7109375 26.375 C84.33686586 20.44880544 78.39716782 19.28447961 69 20 C68.505 18.515 68.505 18.515 68 17 C52.11221186 15.83374757 52.11221186 15.83374757 38 22 C37.46761719 22.40782715 36.93523438 22.8156543 36.38671875 23.23583984 C30.69153173 27.66350049 25.72527617 31.73140497 22 38 C20.64798426 38.91011177 19.2716322 39.78495923 17.875 40.625 C14.52730433 43.34117066 13.72000405 45.52173338 13.2578125 49.67578125 C12.94299428 54.45366352 12.92349627 59.2137357 13 64 C13.66 64 14.32 64 15 64 C15.66 65.65 16.32 67.3 17 69 C17.99 68.505 17.99 68.505 19 68 C19.08636719 69.11117187 19.17273438 70.22234375 19.26171875 71.3671875 C20.42125674 85.15970289 20.42125674 85.15970289 27.66015625 96.6328125 C29 98 29 98 29 100 C28.34 100 27.68 100 27 100 C27.27457031 100.556875 27.54914062 101.11375 27.83203125 101.6875 C30.45007134 107.86231966 30.45007134 107.86231966 29.15625 111.1328125 C27.8125 113.125 27.8125 113.125 26.39453125 114.8828125 C24.51406212 117.73775443 23.88946104 120.71858102 23 124 C34.46564752 124.22373125 45.93145164 124.42516318 57.39797974 124.59840012 C62.72277769 124.67954253 68.04722115 124.76826379 73.37158203 124.87451172 C78.51313988 124.97682952 83.65466591 125.05896932 88.79678345 125.12732697 C90.75521935 125.15686915 92.71356097 125.19359158 94.67172241 125.2377243 C97.4218647 125.29846082 100.17123966 125.33328857 102.921875 125.36230469 C104.12705528 125.39790245 104.12705528 125.39790245 105.35658264 125.43421936 C111.02043113 125.45595099 115.25761243 124.14209505 120 121 C122.0661218 118.88529754 122.0661218 118.88529754 123.375 116.5 C123.83648437 115.7471875 124.29796875 114.994375 124.7734375 114.21875 C125.90329043 112.17493961 126.95561228 110.08877544 128 108 C128 114.6 128 121.2 128 128 C85.76 128 43.52 128 0 128 C0 85.76 0 43.52 0 0 Z " fill="#FDFDFD" transform="translate(0,0)"/>
<path d="M0 0 C0.66 0 1.32 0 2 0 C2.680625 0.7425 2.680625 0.7425 3.375 1.5 C5.12128967 3.45218674 5.12128967 3.45218674 9 3 C9.66 2.01 10.32 1.02 11 0 C10.74468465 7.54456868 10.21147873 14.52303616 6 21 C3 23 3 23 -1 23 C-1 24.65 -1 26.3 -1 28 C-0.28714844 28.14695312 0.42570312 28.29390625 1.16015625 28.4453125 C8.77958184 30.22967327 13.95507635 32.39289813 18.34765625 39.0390625 C21.31080519 44.72429064 21.8241105 49.84242065 20 56 C17.1640553 61.8554457 13.73381667 65.94196444 8 69 C4.13265714 70.28911429 0.51512693 70.08517373 -3.51049805 70.02172852 C-4.37900391 70.01212097 -5.24750977 70.00251343 -6.14233398 69.99261475 C-9.01554435 69.95961083 -11.88860332 69.91928371 -14.76171875 69.87890625 C-16.7528276 69.8546065 -18.74394207 69.83076287 -20.73506165 69.80735779 C-25.97777701 69.74450245 -31.22039308 69.67543984 -36.4630127 69.60510254 C-41.8118843 69.53443223 -47.16082636 69.46960746 -52.50976562 69.40429688 C-63.00658784 69.27526583 -73.50331446 69.13967985 -84 69 C-85 66 -85 66 -83.8203125 63.1875 C-83.26085937 62.135625 -82.70140625 61.08375 -82.125 60 C-79.80764155 55.60930141 -79.80764155 55.60930141 -78 51 C-78.66 50.01 -79.32 49.02 -80 48 C-80 46.68 -80 45.36 -80 44 C-79.34 44 -78.68 44 -78 44 C-78.51691406 43.31292969 -79.03382812 42.62585938 -79.56640625 41.91796875 C-80.55447266 40.56638672 -80.55447266 40.56638672 -81.5625 39.1875 C-82.22378906 38.29417969 -82.88507813 37.40085938 -83.56640625 36.48046875 C-84.03949219 35.66191406 -84.51257813 34.84335938 -85 34 C-84.67 33.01 -84.34 32.02 -84 31 C-82.9152722 32.22793624 -81.83229185 33.4574162 -80.75 34.6875 C-80.10675781 35.41839844 -79.46351562 36.14929688 -78.80078125 36.90234375 C-77.45487811 38.47013114 -76.17725341 40.09699545 -74.9375 41.75 C-72.60672701 44.45670412 -70.020241 46.12073893 -67 48 C-66.505 48.495 -66.505 48.495 -66 49 C-60.58587946 49.57574389 -60.58587946 49.57574389 -55.82861328 47.48901367 C-52.1753277 45.56588327 -49.65150361 45.71858996 -45.5390625 45.84765625 C-44.08333733 45.8758582 -42.62760801 45.90384632 -41.171875 45.93164062 C-38.89850731 45.99367277 -36.62553264 46.06248255 -34.35253906 46.13696289 C-32.14391897 46.20379641 -29.93581278 46.24544541 -27.7265625 46.28515625 C-26.41252441 46.32519775 -25.09848633 46.36523926 -23.74462891 46.40649414 C-18.26892141 45.81208464 -14.59811785 43.76986458 -10.85546875 39.625 C-6.56145463 32.86720728 -4.68209146 26.97629407 -4 19 C-4.81984375 18.86722656 -5.6396875 18.73445313 -6.484375 18.59765625 C-7.56203125 18.42105469 -8.6396875 18.24445313 -9.75 18.0625 C-11.35101563 17.80146484 -11.35101563 17.80146484 -12.984375 17.53515625 C-19.96779986 16.29586971 -19.96779986 16.29586971 -23 13 C-23.99 12.34 -24.98 11.68 -26 11 C-24.35 11 -22.7 11 -21 11 C-20.67 9.02 -20.34 7.04 -20 5 C-14.25 4.875 -14.25 4.875 -12 6 C-12 6.66 -12 7.32 -12 8 C-11.34 8 -10.68 8 -10 8 C-9.896875 7.38125 -9.79375 6.7625 -9.6875 6.125 C-9 4 -9 4 -6 2 C-3.8125 2.375 -3.8125 2.375 -2 3 C-1.34 2.01 -0.68 1.02 0 0 Z " fill="#3E1711" transform="translate(107,56)"/>
<path d="M0 0 C1.74243164 1.52929688 1.74243164 1.52929688 3 3 C0 4 0 4 -1.75 3.5 C-4.991783 2.77960378 -7.76725362 3.39004785 -11 4 C-12.37771762 5.16475062 -12.37771762 5.16475062 -12.3125 8.375 C-13 12 -13 12 -15.0625 13.8125 C-15.701875 14.204375 -16.34125 14.59625 -17 15 C-17 15.66 -17 16.32 -17 17 C-16.01 17.33 -15.02 17.66 -14 18 C-14.99 18.99 -15.98 19.98 -17 21 C-15.7315625 20.9690625 -15.7315625 20.9690625 -14.4375 20.9375 C-11 21 -11 21 -7.6875 21.5 C-3.39300109 22.08230494 0.66899462 22.06663085 5 22 C5.495 27.94 5.495 27.94 6 34 C4.453125 34.2475 2.90625 34.495 1.3125 34.75 C-3.10806777 35.63036731 -5.75196969 36.75196969 -9 40 C-9.598125 40.5775 -10.19625 41.155 -10.8125 41.75 C-11.204375 42.1625 -11.59625 42.575 -12 43 C-12.21398438 42.38640625 -12.42796875 41.7728125 -12.6484375 41.140625 C-14.50942937 38.19315811 -16.35260117 37.81543218 -19.625 36.75 C-20.62789062 36.41484375 -21.63078125 36.0796875 -22.6640625 35.734375 C-23.43492188 35.49203125 -24.20578125 35.2496875 -25 35 C-25 35.66 -25 36.32 -25 37 C-24.278125 37.103125 -23.55625 37.20625 -22.8125 37.3125 C-18.99018115 38.24684461 -16.08705273 39.55059636 -13.6875 42.75 C-12.29978526 47.29161188 -12.57327935 50.92303835 -14.3125 55.3125 C-16 58 -16 58 -19 60 C-24.17318721 60.68869056 -28.59644131 60.84213522 -33.125 58.125 C-36.39567892 54.41823056 -36.09009371 51.86506043 -36 47 C-33.03 47.33 -30.06 47.66 -27 48 C-27.33 45.36 -27.66 42.72 -28 40 C-29.485 40.495 -29.485 40.495 -31 41 C-31.66 40.67 -32.32 40.34 -33 40 C-33 40.66 -33 41.32 -33 42 C-36 44 -36 44 -40 44 C-40 42.02 -40 40.04 -40 38 C-40.66 38.66 -41.32 39.32 -42 40 C-43.65 39.01 -45.3 38.02 -47 37 C-47 37.99 -47 38.98 -47 40 C-47.66 40 -48.32 40 -49 40 C-49.020625 41.258125 -49.04125 42.51625 -49.0625 43.8125 C-49.07410156 44.52019531 -49.08570313 45.22789063 -49.09765625 45.95703125 C-49.08263217 48.20305461 -49.08263217 48.20305461 -48 51 C-47.34 51 -46.68 51 -46 51 C-46 54.63 -46 58.26 -46 62 C-46.33 62 -46.66 62 -47 62 C-47.16276042 59.98177083 -47.32552083 57.96354167 -47.48828125 55.9453125 C-47.87393036 53.60480784 -47.87393036 53.60480784 -51 52 C-51 50.68 -51 49.36 -51 48 C-51.66 48 -52.32 48 -53 48 C-54.06838196 31.02459783 -54.06838196 31.02459783 -51.51171875 26.1796875 C-47.28831067 22 -47.28831067 22 -44 22 C-43.8040625 21.29875 -43.608125 20.5975 -43.40625 19.875 C-39.58865131 12.07013157 -28.71967718 4.20539947 -20.91796875 0.703125 C-14.14224468 -0.9295796 -6.88812553 -0.83240188 0 0 Z " fill="#695E67" transform="translate(66,16)"/>
<path d="M0 0 C0.37125 1.2375 0.7425 2.475 1.125 3.75 C2.75399954 8.112013 4.80051 9.85740306 9 12 C10.32594105 12.36162029 11.65842743 12.70155081 13 13 C13.35807292 14.953125 13.71614583 16.90625 14.07421875 18.859375 C15.42362299 21.97951646 17.13913159 23.20650136 20 25 C25.6517493 25.97295937 31.94144573 25.98873903 37.1875 23.4375 C40.33073864 21.20960024 40.33073864 21.20960024 40.75 17.4375 C41.1625 16.303125 41.575 15.16875 42 14 C45.56203376 12.44229105 49.18089742 11.67057821 53 11 C52.67 11.66 52.34 12.32 52 13 C51.1570527 20.32024549 51.1570527 20.32024549 54.0625 26.75 C57.89376211 28.3803243 60.00980384 28.08823532 64 27 C66.55851025 26.18547684 66.55851025 26.18547684 68 24 C68.83134085 19.56046845 68.47258545 16.05257669 66.625 11.9375 C62.64156176 8.99734321 58.78835866 9.58878599 54 10 C55.58039566 7.42145972 56.45945076 6.18255782 59.37109375 5.19921875 C62.14509614 4.9890046 64.3468426 5.22907438 67.0625 5.8125 C67.89910156 5.98394531 68.73570313 6.15539062 69.59765625 6.33203125 C71.93090613 6.98078853 73.88084186 7.84009127 76 9 C76.93383362 18.49397515 73.14699322 24.27951017 68 32 C64.54535094 35.45464906 61.23938721 36.90000238 56.36889648 37.29296875 C55.04962158 37.25816406 53.73034668 37.22335938 52.37109375 37.1875 C51.65897232 37.17614014 50.94685089 37.16478027 50.21315002 37.15307617 C47.95402418 37.11666687 45.69609272 37.06080177 43.4375 37 C40.45705999 36.91995408 37.47720876 36.86011915 34.49609375 36.8125 C33.17794678 36.77769531 31.8597998 36.74289063 30.50170898 36.70703125 C26.76546799 37.019622 25.02464237 37.87840941 22 40 C17.90222868 40.86146329 14.86420554 40.54264069 11.3125 38.3125 C10.549375 37.549375 9.78625 36.78625 9 36 C8.2575 35.278125 7.515 34.55625 6.75 33.8125 C5.8425 32.884375 4.935 31.95625 4 31 C3.25878906 30.26910156 2.51757812 29.53820312 1.75390625 28.78515625 C0.94824219 27.98980469 0.14257812 27.19445312 -0.6875 26.375 C-1.45449219 25.61960937 -2.22148437 24.86421875 -3.01171875 24.0859375 C-5 22 -5 22 -7 19 C-6.89852616 16.0746541 -6.67957641 13.32852664 -6.3125 10.4375 C-6.23322266 9.65697266 -6.15394531 8.87644531 -6.07226562 8.07226562 C-5.82751295 6.03148613 -5.42291486 4.01142433 -5 2 C-2 0 -2 0 0 0 Z " fill="#FBDA59" transform="translate(27,66)"/>
<path d="M0 0 C0 0.66 0 1.32 0 2 C-0.59167969 2.02578125 -1.18335938 2.0515625 -1.79296875 2.078125 C-7.0359263 2.45445474 -10.23949994 3.01159084 -14 7 C-16.28853994 10.26934278 -16.47162218 13.0698152 -16 17 C-14.38092222 20.00685874 -12.94422632 22.2581079 -10.25 24.375 C-6.05547296 25.5401464 -2.06703604 25.86946754 1.96875 24.171875 C3.69276962 23.1929825 5.35042505 22.09971663 7 21 C7.99 20.34 8.98 19.68 10 19 C9.505 21.475 9.505 21.475 9 24 C9.59167969 23.93039063 10.18335937 23.86078125 10.79296875 23.7890625 C15.39423438 23.4738045 17.33650999 23.47191612 21.0625 26.4375 C23.34515535 29.78592474 23.72929676 32.95061414 23.48046875 36.9453125 C23 39 23 39 20.9375 41.5 C17.37273854 43.32030373 15.02325099 44.07058335 11 44 C6.60129807 41.76066084 6.60129807 41.76066084 5 39 C4.50423052 35.27911958 4.64728917 31.72959047 5 28 C1.95799954 28 -0.99532806 28.55486342 -4 29 C-4 30.051875 -4 31.10375 -4 32.1875 C-5.01758828 36.06705532 -5.21450136 36.7182699 -8.25 38.9375 C-13.83929128 41.974281 -19.82444285 42.02658612 -26 41 C-29.27578277 39.36810822 -31.3407035 37.318593 -33 34 C-33.039992 32.00039988 -33.04346799 29.99952758 -33 28 C-33.70125 27.9175 -34.4025 27.835 -35.125 27.75 C-39.40073033 26.63459209 -42.84091998 24.68593458 -45.375 21 C-46 19 -46 19 -46 15 C-48.04574461 15.51972392 -48.04574461 15.51972392 -50 17 C-50.92499783 20.0982878 -50.92499783 20.0982878 -51.25 23.625 C-51.39953125 24.81351563 -51.5490625 26.00203125 -51.703125 27.2265625 C-51.80109375 28.14179687 -51.8990625 29.05703125 -52 30 C-52.33 30 -52.66 30 -53 30 C-53 25.38 -53 20.76 -53 16 C-53.66 16 -54.32 16 -55 16 C-57.13586678 12.79619983 -57.23132175 11.98060033 -57.125 8.3125 C-57.10695313 7.50425781 -57.08890625 6.69601563 -57.0703125 5.86328125 C-57.04710937 5.24839844 -57.02390625 4.63351563 -57 4 C-56.01 4.33 -55.02 4.66 -54 5 C-54 4.01 -54 3.02 -54 2 C-51.525 2.99 -51.525 2.99 -49 4 C-48.34 3.34 -47.68 2.68 -47 2 C-45.66667905 4.6666419 -46.32897967 6.16680303 -47 9 C-44.69 8.34 -42.38 7.68 -40 7 C-40 6.34 -40 5.68 -40 5 C-38.35 5 -36.7 5 -35 5 C-33.38050989 7.57213134 -32.95591249 8.67669159 -33.375 11.75 C-33.684375 12.86375 -33.684375 12.86375 -34 14 C-37.02485781 13.4118332 -40.01386614 12.75929472 -43 12 C-42.77042223 13.4409026 -42.51543646 14.87777015 -42.25 16.3125 C-42.11078125 17.11300781 -41.9715625 17.91351563 -41.828125 18.73828125 C-40.75923696 21.65755566 -39.72540232 22.531754 -37 24 C-34.28514119 24.39834803 -34.28514119 24.39834803 -31.4375 24.25 C-30.48746094 24.23453125 -29.53742187 24.2190625 -28.55859375 24.203125 C-25.88042887 24.09356342 -25.88042887 24.09356342 -23 23 C-20.75289988 18.03272604 -20.07661263 13.02199503 -21.6875 7.75 C-24.27059166 4.30587779 -27.84599619 2.76925996 -32 2 C-32 1.34 -32 0.68 -32 0 C-27.24635987 0.46604315 -23.86682984 1.12749783 -20 4 C-19.34 4.99 -18.68 5.98 -18 7 C-17.2575 6.05125 -16.515 5.1025 -15.75 4.125 C-11.63876446 -0.74417282 -6.2676886 -3.1338443 0 0 Z " fill="#201B12" transform="translate(73,51)"/>
<path d="M0 0 C2.99201451 2.9013474 5.75390648 5.87200548 8.4375 9.0625 C11.35961712 12.45138856 14.1679974 14.71904607 18 17 C18.33 17.33 18.66 17.66 19 18 C24.41024596 18.57609872 24.41024596 18.57609872 29.16479492 16.4934082 C32.70834254 14.62688958 35.67110515 14.65334039 39.56640625 14.77734375 C40.2823143 14.78633194 40.99822235 14.79532013 41.73582458 14.80458069 C44.01188875 14.83447399 46.28687122 14.88425342 48.5625 14.9375 C50.84162244 14.98540803 53.12046895 15.02873099 55.39988708 15.05970764 C56.81466948 15.07938715 58.22935866 15.10892828 59.64369202 15.14964294 C63.36374044 15.20642803 65.78600742 14.85497971 69 13 C69.99 13 70.98 13 72 13 C72.495 16.465 72.495 16.465 73 20 C72.13761719 19.95101562 71.27523437 19.90203125 70.38671875 19.8515625 C66.65951876 20.01492305 64.21558264 20.8826469 60.8125 22.375 C59.78769531 22.81585938 58.76289062 23.25671875 57.70703125 23.7109375 C54.87323538 24.98116658 54.87323538 24.98116658 52 27 C41.24065278 30.53484549 31.7861726 33.3177412 21.21875 28.08984375 C17.90399788 26.46164684 14.46856676 25.261297 11 24 C11.33 24.66 11.66 25.32 12 26 C13.28687011 29.86061033 13.13757618 32.94150283 13 37 C14.98 36.505 14.98 36.505 17 36 C17 33.03 17 30.06 17 27 C21.45965068 29.22982534 23.40574793 31.79552251 26 36 C26.66 36.66 27.32 37.32 28 38 C19.09 38 10.18 38 1 38 C0 35 0 35 1.1796875 32.1875 C2.01886719 30.6096875 2.01886719 30.6096875 2.875 29 C5.19235845 24.60930141 5.19235845 24.60930141 7 20 C6.34 19.01 5.68 18.02 5 17 C5 15.68 5 14.36 5 13 C5.66 13 6.32 13 7 13 C6.4946875 12.31292969 5.989375 11.62585938 5.46875 10.91796875 C4.8190625 10.01691406 4.169375 9.11585937 3.5 8.1875 C2.8503125 7.29417969 2.200625 6.40085937 1.53125 5.48046875 C0 3 0 3 0 0 Z " fill="#0F0F16" transform="translate(22,87)"/>
<path d="M0 0 C0.9384375 0.17144531 1.876875 0.34289062 2.84375 0.51953125 C5.31574835 1.14116613 7.28382683 1.94874283 9.5 3.1875 C10.43383362 12.68147515 6.64699322 18.46701017 1.5 26.1875 C-2.19686549 29.88436549 -5.90225976 31.35918725 -11.07421875 31.515625 C-12.77881945 31.50633562 -14.48339571 31.47967131 -16.1875 31.4375 C-17.51346191 31.42106445 -17.51346191 31.42106445 -18.86621094 31.40429688 C-25.10580504 31.29896795 -31.30645861 30.98300073 -37.5 30.1875 C-37.5 29.8575 -37.5 29.5275 -37.5 29.1875 C-36.89671875 29.17332031 -36.2934375 29.15914062 -35.671875 29.14453125 C-30.21123416 28.87471054 -30.21123416 28.87471054 -25.9375 25.625 C-25.463125 24.820625 -24.98875 24.01625 -24.5 23.1875 C-25.62109566 21.56256099 -25.62109566 21.56256099 -27.5 20.1875 C-30.62549017 19.93701364 -30.62549017 19.93701364 -33.5 20.1875 C-32.736875 19.589375 -31.97375 18.99125 -31.1875 18.375 C-26.19762546 14.45447494 -26.19762546 14.45447494 -24.5 8.1875 C-20.87 7.1975 -17.24 6.2075 -13.5 5.1875 C-13.83 5.8475 -14.16 6.5075 -14.5 7.1875 C-15.3429473 14.50774549 -15.3429473 14.50774549 -12.4375 20.9375 C-8.60623789 22.5678243 -6.49019616 22.27573532 -2.5 21.1875 C0.05851025 20.37297684 0.05851025 20.37297684 1.5 18.1875 C2.33134085 13.74796845 1.97258545 10.24007669 0.125 6.125 C-3.85843824 3.18484321 -7.71164134 3.77628599 -12.5 4.1875 C-10.08260539 0.44053836 -10.08260539 0.44053836 -7.65625 -0.61328125 C-4.95262153 -0.86307301 -2.66625151 -0.50907824 0 0 Z " fill="#F1C254" transform="translate(93.5,71.8125)"/>
<path d="M0 0 C3.9939035 4.27254793 6.37187942 8.46736768 6.91796875 14.36328125 C6.63681492 21.0589076 4.06733859 25.88685049 -0.3125 30.875 C-2.30705702 32.69695113 -3.84510304 33.66871704 -6.3125 34.875 C-7.3025 34.545 -8.2925 34.215 -9.3125 33.875 C-9.81422305 30.67955998 -10.30923344 27.48337745 -10.79296875 24.28515625 C-11.09364418 22.31154986 -11.40360765 20.33922014 -11.73828125 18.37109375 C-12.33434219 14.58646585 -12.58924072 12.08922219 -10.3125 8.875 C-9.6525 8.875 -8.9925 8.875 -8.3125 8.875 C-8.6425 7.555 -8.9725 6.235 -9.3125 4.875 C-9.9725 4.875 -10.6325 4.875 -11.3125 4.875 C-11.3125 3.885 -11.3125 2.895 -11.3125 1.875 C-12.3025 2.205 -13.2925 2.535 -14.3125 2.875 C-16.5 1.9375 -16.5 1.9375 -18.3125 0.875 C-17.9825 -0.775 -17.6525 -2.425 -17.3125 -4.125 C-11.03194338 -6.35358461 -5.27568038 -3.38439873 0 0 Z " fill="#44221C" transform="translate(121.3125,90.125)"/>
<path d="M0 0 C0.99 0.33 1.98 0.66 3 1 C1.30731303 5.43436304 -0.82345799 9.52347988 -3.07421875 13.6953125 C-4.32735577 16.09635989 -4.32735577 16.09635989 -3 19 C-2.74546237 23.07260203 -2.6848563 24.52728445 -5 28 C-5 28.66 -5 29.32 -5 30 C-10.28 30.33 -15.56 30.66 -21 31 C-20.15104776 25.05733434 -19.39961141 22.11221561 -17 17 C-18.48886719 17.65355469 -18.48886719 17.65355469 -20.0078125 18.3203125 C-20.98415649 18.74824097 -20.98415649 18.74824097 -21.98022461 19.18481445 C-23.41885011 19.81545154 -24.85716047 20.44680796 -26.29516602 21.07885742 C-29.89969158 22.6593857 -33.50947435 24.2213296 -37.14453125 25.73046875 C-37.78438965 25.99778809 -38.42424805 26.26510742 -39.08349609 26.54052734 C-40.85445101 27.27791995 -42.62833093 28.00827598 -44.40234375 28.73828125 C-47.11997831 29.73232731 -47.11997831 29.73232731 -48 32 C-51.1875 31.9375 -51.1875 31.9375 -55 31 C-56.57405515 29.33826539 -57.69367231 27.65750339 -58.859375 25.69140625 C-60.0530773 23.69038167 -60.0530773 23.69038167 -63 22 C-63 24.64 -63 27.28 -63 30 C-64.65 30.33 -66.3 30.66 -68 31 C-68.66 26.71 -69.32 22.42 -70 18 C-63.27320955 19.12113174 -63.27320955 19.12113174 -59.8125 21 C-51.38830912 25.51948702 -44.23485998 24.3272253 -35.4375 21.75 C-29.62535876 19.99203768 -24.31795542 17.96578283 -19 15 C-15.44954598 13.34862604 -12.92047873 12.77597264 -9 13 C-8.7215625 11.453125 -8.7215625 11.453125 -8.4375 9.875 C-7.27605352 5.75102338 -4.95683668 3.68051831 -1.75390625 0.96875 C-1.17511719 0.6490625 -0.59632812 0.329375 0 0 Z " fill="#131219" transform="translate(103,93)"/>
<path d="M0 0 C0.66 0 1.32 0 2 0 C2.680625 0.7425 2.680625 0.7425 3.375 1.5 C5.12128967 3.45218674 5.12128967 3.45218674 9 3 C9.66 2.01 10.32 1.02 11 0 C10.74468465 7.54456868 10.21147873 14.52303616 6 21 C3 23 3 23 -1 23 C-1.33 22.01 -1.66 21.02 -2 20 C-2.33 21.98 -2.66 23.96 -3 26 C-3.33 26 -3.66 26 -4 26 C-4 23.69 -4 21.38 -4 19 C-4.81984375 18.86722656 -5.6396875 18.73445313 -6.484375 18.59765625 C-7.56203125 18.42105469 -8.6396875 18.24445313 -9.75 18.0625 C-11.35101563 17.80146484 -11.35101563 17.80146484 -12.984375 17.53515625 C-19.96779986 16.29586971 -19.96779986 16.29586971 -23 13 C-23.99 12.34 -24.98 11.68 -26 11 C-24.35 11 -22.7 11 -21 11 C-20.67 9.02 -20.34 7.04 -20 5 C-14.25 4.875 -14.25 4.875 -12 6 C-12 6.66 -12 7.32 -12 8 C-11.34 8 -10.68 8 -10 8 C-9.896875 7.38125 -9.79375 6.7625 -9.6875 6.125 C-9 4 -9 4 -6 2 C-3.8125 2.375 -3.8125 2.375 -2 3 C-1.34 2.01 -0.68 1.02 0 0 Z " fill="#41363A" transform="translate(107,56)"/>
<path d="M0 0 C0.33 2.64 0.66 5.28 1 8 C1.66 8 2.32 8 3 8 C4.32421875 9.609375 4.32421875 9.609375 5.6875 11.75 C6.14511719 12.44609375 6.60273437 13.1421875 7.07421875 13.859375 C8 16 8 16 7.8359375 18.125 C6.62976307 20.83043798 4.59722453 21.90932258 2.03125 23.234375 C-1.6028413 24.60414788 -4.11309397 24.49357537 -8 24 C-12.36859523 21.77448922 -15.05621805 19.53549123 -17 15 C-17.59047513 11.03538126 -17.19372634 9.3528587 -15.25 5.8125 C-10.48590188 -0.14262265 -7.38661583 -0.42615091 0 0 Z " fill="#F4F3F3" transform="translate(73,53)"/>
<path d="M0 0 C1.61841797 0.03383789 1.61841797 0.03383789 3.26953125 0.06835938 C5.93028092 0.12722552 8.59031666 0.21690435 11.25 0.3125 C11.58 4.2725 11.91 8.2325 12.25 12.3125 C10.703125 12.56 9.15625 12.8075 7.5625 13.0625 C3.14193223 13.94286731 0.49803031 15.06446969 -2.75 18.3125 C-3.348125 18.89 -3.94625 19.4675 -4.5625 20.0625 C-4.954375 20.475 -5.34625 20.8875 -5.75 21.3125 C-5.97429688 20.69890625 -6.19859375 20.0853125 -6.4296875 19.453125 C-8.17512806 16.62323913 -9.7809923 16.17316943 -12.875 15.0625 C-13.78507812 14.72734375 -14.69515625 14.3921875 -15.6328125 14.046875 C-16.33148438 13.80453125 -17.03015625 13.5621875 -17.75 13.3125 C-15.36969242 1.60932107 -11.78927925 -0.46442615 0 0 Z " fill="#FBDC4A" transform="translate(59.75,37.6875)"/>
<path d="M0 0 C2.48990563 1.23080563 4.55277051 1.42665787 7.3125 1.64453125 C8.20453125 1.71929687 9.0965625 1.7940625 10.015625 1.87109375 C11.02882813 1.94457031 11.02882813 1.94457031 12.0625 2.01953125 C10.7425 2.34953125 9.4225 2.67953125 8.0625 3.01953125 C8.0625 4.07140625 8.0625 5.12328125 8.0625 6.20703125 C7.04491172 10.08658657 6.84799864 10.73780115 3.8125 12.95703125 C-1.78049126 15.99582253 -7.757943 16.03875689 -13.9375 15.01953125 C-16.78254209 13.6491172 -17.85629807 12.50541133 -19.9375 10.01953125 C-20.9375 7.01953125 -20.9375 7.01953125 -20.5 4.51953125 C-18.58868251 1.46142327 -16.62049449 0.60631546 -13.23046875 -0.48046875 C-8.87218713 -1.43082658 -4.08173332 -2.06555456 0 0 Z " fill="#592115" transform="translate(60.9375,76.98046875)"/>
<path d="M0 0 C0.66 0.33 1.32 0.66 2 1 C1.5206753 5.31392226 0.2542015 7.16569547 -3 10 C-4.65 9.34 -6.3 8.68 -8 8 C-8 9.32 -8 10.64 -8 12 C-7.01 11.67 -6.02 11.34 -5 11 C-4.34 11.99 -3.68 12.98 -3 14 C-4.7015625 14.2165625 -4.7015625 14.2165625 -6.4375 14.4375 C-9.80777201 14.61171478 -9.80777201 14.61171478 -11 16 C-13.34087842 15.72460254 -15.67402489 15.3813074 -18 15 C-19.134375 14.814375 -20.26875 14.62875 -21.4375 14.4375 C-22.283125 14.293125 -23.12875 14.14875 -24 14 C-24 13.01 -24 12.02 -24 11 C-24.33 10.01 -24.66 9.02 -25 8 C-24.360625 7.649375 -23.72125 7.29875 -23.0625 6.9375 C-20.18316991 4.23267477 -20.41811948 1.83276193 -20 -2 C-13.94305496 -8.05694504 -5.91082165 -3.94054777 0 0 Z " fill="#524146" transform="translate(73,23)"/>
<path d="M0 0 C6.37534247 0.49041096 6.37534247 0.49041096 9.375 2.9375 C12.33101734 6.68936816 12.3174288 9.23856793 12 14 C10.42275698 17.98066095 9.58999089 19.60667274 6 22 C0.82681279 22.68869056 -3.59644131 22.84213522 -8.125 20.125 C-11.39567892 16.41823056 -11.09009371 13.86506043 -11 9 C-8.03 9.33 -5.06 9.66 -2 10 C-2.04125 9.0925 -2.0825 8.185 -2.125 7.25 C-2.00468444 4.1217954 -1.6085292 2.61385994 0 0 Z " fill="#F5F5F4" transform="translate(41,54)"/>
<path d="M0 0 C0.33 0 0.66 0 1 0 C1 6.6 1 13.2 1 20 C-28.7 20 -58.4 20 -89 20 C-88.505 18.515 -88.505 18.515 -88 17 C-87.10321533 17.00888245 -86.20643066 17.01776489 -85.2824707 17.0269165 C-76.80851655 17.10724661 -68.3346913 17.16805781 -59.86044312 17.20724869 C-55.50428959 17.22807492 -51.14845213 17.25630099 -46.79248047 17.30175781 C-42.58439043 17.34539387 -38.37660337 17.3691744 -34.16830444 17.37950897 C-32.56720209 17.38686863 -30.9661153 17.4012402 -29.36514282 17.42292023 C-17.5927265 17.68641394 -17.5927265 17.68641394 -7 13 C-4.90018083 10.88727648 -4.90018083 10.88727648 -3.5625 8.5 C-2.85287109 7.37078125 -2.85287109 7.37078125 -2.12890625 6.21875 C-1.06581829 4.12935913 -0.45299128 2.29099037 0 0 Z " fill="#EDECEC" transform="translate(127,108)"/>
<path d="M0 0 C-0.78175515 4.84688192 -2.39844278 9.3766367 -4 14 C-3.030625 13.835 -2.06125 13.67 -1.0625 13.5 C3.29487763 12.86603727 7.60630704 12.9103328 12 13 C11.505 11.515 11.505 11.515 11 10 C11.6492959 8.65812182 12.31731862 7.32520503 13 6 C13 4.68 13 3.36 13 2 C13.99 2 14.98 2 16 2 C16.99 6.29 17.98 10.58 19 15 C2.5 15 -14 15 -31 15 C-30 12 -30 12 -27.83862305 10.77319336 C-26.90574463 10.38268799 -25.97286621 9.99218262 -25.01171875 9.58984375 C-23.99529297 9.15736328 -22.97886719 8.72488281 -21.93164062 8.27929688 C-20.86107422 7.83650391 -19.79050781 7.39371094 -18.6875 6.9375 C-16.58693468 6.05150379 -14.48666253 5.1648121 -12.38671875 4.27734375 C-11.45045654 3.88796631 -10.51419434 3.49858887 -9.54956055 3.09741211 C-7.03590003 2.05674832 -7.03590003 2.05674832 -4.85083008 0.85766602 C-3 0 -3 0 0 0 Z " fill="#0E0E12" transform="translate(86,110)"/>
<path d="M0 0 C3.118887 2.64427376 4.63022542 4.27339129 5.484375 8.26171875 C5.72542573 12.31271017 5.56756337 14.3120444 2.9375 17.5 C-0.62726146 19.32030373 -2.97674901 20.07058335 -7 20 C-11.37615176 17.77214092 -11.37615176 17.77214092 -13 15 C-13.73428582 10.15653777 -13.54948555 5.64845666 -12 1 C-3.7880597 -0.5641791 -3.7880597 -0.5641791 0 0 Z " fill="#C44C26" transform="translate(91,75)"/>
<path d="M0 0 C0.391875 1.2375 0.78375 2.475 1.1875 3.75 C2.36133163 6.98932384 2.75565729 7.82952834 5.6875 9.875 C8 12 8 12 8.4609375 14.3203125 C8.61716023 18.44218921 8.61177625 21.10418478 6.25 24.5625 C2.32762836 27.06845966 2.32762836 27.06845966 0 27 C-3.8255465 24.5996571 -5.56907104 23.29278687 -7 19 C-7 13.26838276 -6.51917297 7.54188097 -5 2 C-2 0 -2 0 0 0 Z " fill="#C2492C" transform="translate(27,66)"/>
<path d="M0 0 C2.475 0.99 2.475 0.99 5 2 C5.66 1.34 6.32 0.68 7 0 C8.33332095 2.6666419 7.67102033 4.16680303 7 7 C9.31 6.34 11.62 5.68 14 5 C14 4.34 14 3.68 14 3 C15.65 3 17.3 3 19 3 C20.61949011 5.57213134 21.04408751 6.67669159 20.625 9.75 C20.315625 10.86375 20.315625 10.86375 20 12 C16.97580475 11.41196203 13.98241547 10.77321882 11 10 C10.67 11.32 10.34 12.64 10 14 C9.67 13.34 9.34 12.68 9 12 C6.44713979 13.0377272 6.44713979 13.0377272 4 15 C2.96472358 18.16579014 2.96472358 18.16579014 2.6875 21.6875 C2.54699219 22.86699219 2.40648437 24.04648438 2.26171875 25.26171875 C2.17535156 26.16535156 2.08898437 27.06898437 2 28 C1.67 28 1.34 28 1 28 C1 23.38 1 18.76 1 14 C0.34 14 -0.32 14 -1 14 C-3.13586678 10.79619983 -3.23132175 9.98060033 -3.125 6.3125 C-3.10695313 5.50425781 -3.08890625 4.69601563 -3.0703125 3.86328125 C-3.04710937 3.24839844 -3.02390625 2.63351563 -3 2 C-2.01 2.33 -1.02 2.66 0 3 C0 2.01 0 1.02 0 0 Z " fill="#312623" transform="translate(19,53)"/>
<path d="M0 0 C0.9384375 0.17144531 1.876875 0.34289062 2.84375 0.51953125 C5.31574835 1.14116613 7.28382683 1.94874283 9.5 3.1875 C10.43383362 12.68147515 6.64699322 18.46701017 1.5 26.1875 C-1.93048217 29.61798217 -5.0302643 31.10584802 -9.875 31.375 C-10.74125 31.313125 -11.6075 31.25125 -12.5 31.1875 C-10.14046906 28.82796906 -8.72104383 28.69608587 -5.5 28.1875 C-5.5 27.1975 -5.5 26.2075 -5.5 25.1875 C-4.51 24.8575 -3.52 24.5275 -2.5 24.1875 C-2.5 23.1975 -2.5 22.2075 -2.5 21.1875 C-1.84 20.81625 -1.18 20.445 -0.5 20.0625 C1.92172414 17.79213362 1.87171062 17.04111609 2 13.8125 C1.8286167 10.7225599 1.41791107 9.00466557 0.125 6.125 C-3.85843824 3.18484321 -7.71164134 3.77628599 -12.5 4.1875 C-10.08260539 0.44053836 -10.08260539 0.44053836 -7.65625 -0.61328125 C-4.95262153 -0.86307301 -2.66625151 -0.50907824 0 0 Z " fill="#F3BB53" transform="translate(93.5,71.8125)"/>
<path d="M0 0 C2.33944736 0.28730055 4.6739143 0.61936779 7 1 C6.01 1.33 5.02 1.66 4 2 C4.33 2.66 4.66 3.32 5 4 C6.28687011 7.86061033 6.13757618 10.94150283 6 15 C7.32 14.67 8.64 14.34 10 14 C10 11.03 10 8.06 10 5 C14.45965068 7.22982534 16.40574793 9.79552251 19 14 C19.66 14.66 20.32 15.32 21 16 C12.09 16 3.18 16 -6 16 C-7 13 -7 13 -5.8203125 10.1171875 C-5.26085937 9.04726562 -4.70140625 7.97734375 -4.125 6.875 C-3.57070313 5.79992187 -3.01640625 4.72484375 -2.4453125 3.6171875 C-1 1 -1 1 0 0 Z " fill="#1A1A1E" transform="translate(29,109)"/>
<path d="M0 0 C0.66 0.33 1.32 0.66 2 1 C-7.01068389 5.61066163 -16.01301555 9.98383266 -25.40234375 13.7734375 C-28.1228823 14.73089093 -28.1228823 14.73089093 -29 17 C-32.1875 16.9375 -32.1875 16.9375 -36 16 C-37.57405515 14.33826539 -38.69367231 12.65750339 -39.859375 10.69140625 C-41.0530773 8.69038167 -41.0530773 8.69038167 -44 7 C-44 9.64 -44 12.28 -44 15 C-45.65 15.33 -47.3 15.66 -49 16 C-49.66 11.71 -50.32 7.42 -51 3 C-44.27320955 4.12113174 -44.27320955 4.12113174 -40.8125 6 C-31.57635391 10.95509218 -23.69464694 8.93021148 -14.18481445 6.07324219 C-9.16463728 4.49245374 -4.65096046 2.46785657 0 0 Z " fill="#47474C" transform="translate(84,108)"/>
<path d="M0 0 C3.80489745 1.49478114 5.66190835 3.69442214 8 7 C9.53945436 11.61836307 9.66103593 16.1828765 9 21 C7.55762257 23.36529725 6.28282753 24.34495004 4 26 C3.01 25.67 2.02 25.34 1 25 C0.49827695 21.80455998 0.00326656 18.60837745 -0.48046875 15.41015625 C-0.78114418 13.43654986 -1.09110765 11.46422014 -1.42578125 9.49609375 C-2.02184219 5.71146585 -2.27674072 3.21422219 0 0 Z " fill="#DE793A" transform="translate(111,99)"/>
<path d="M0 0 C0.66 0 1.32 0 2 0 C1.835 0.639375 1.67 1.27875 1.5 1.9375 C0.67034612 7.01913003 0.36160326 12.08480978 2 17 C2.0685495 18.89470816 2.08480372 20.7916834 2.0625 22.6875 C2.05347656 23.68136719 2.04445313 24.67523438 2.03515625 25.69921875 C2.02355469 26.45847656 2.01195313 27.21773437 2 28 C0.02 28 -1.96 28 -4 28 C-8.28124259 13.26962295 -8.28124259 13.26962295 -4.84375 6.8359375 C-1.75675676 1.75675676 -1.75675676 1.75675676 0 0 Z " fill="#D77D45" transform="translate(108,96)"/>
<path d="M0 0 C2 3 2 3 3.4375 6.0625 C4.82080155 9.2229398 4.82080155 9.2229398 8 11 C10.26919797 11.28167402 10.26919797 11.28167402 12.8125 11.1875 C14.26269531 11.16623047 14.26269531 11.16623047 15.7421875 11.14453125 C20.48721632 10.93402038 25.2082669 10.49861003 29.93359375 10.0234375 C33.10035608 9.99923295 34.32446806 10.46785778 37 12 C43.4974043 12.63908895 46.60124843 11.59916771 52 8 C52.99 7.34 53.98 6.68 55 6 C54.80737026 9.46733538 54.19860847 10.79587463 51.75 13.3125 C46.84071004 16.27004785 40.49529486 15.61058832 35 15 C33.65354548 14.36024813 32.31820579 13.69610036 31 13 C25.92080482 12.38213726 21.65175892 12.81093698 17 15 C16.01 15 15.02 15 14 15 C13.67 16.65 13.34 18.3 13 20 C12.67 20 12.34 20 12 20 C12 18.35 12 16.7 12 15 C11.29875 14.9175 10.5975 14.835 9.875 14.75 C5.62041029 13.64010703 2.19914057 11.68969808 -0.375 8.0625 C-1.12155551 5.59886682 -1.20758597 3.560227 -1 1 C-0.67 0.67 -0.34 0.34 0 0 Z " fill="#1C0807" transform="translate(28,64)"/>
<path d="M0 0 C0.66 0.33 1.32 0.66 2 1 C1.67 2.98 1.34 4.96 1 7 C1.78375 7.12375 2.5675 7.2475 3.375 7.375 C6 8 6 8 8 10 C10.06874034 10.6425235 10.06874034 10.6425235 12 11 C12 11.66 12 12.32 12 13 C13.65 13 15.3 13 17 13 C15.5 15 15.5 15 13 17 C8.41398683 17.58235088 6.22596555 17.76979232 2.3125 15.3125 C1.549375 14.549375 0.78625 13.78625 0 13 C-0.86625 12.154375 -1.7325 11.30875 -2.625 10.4375 C-3.40875 9.633125 -4.1925 8.82875 -5 8 C-5.598125 7.443125 -6.19625 6.88625 -6.8125 6.3125 C-8 5 -8 5 -8 3 C-6.865625 2.87625 -5.73125 2.7525 -4.5625 2.625 C-3.386875 2.41875 -2.21125 2.2125 -1 2 C-0.67 1.34 -0.34 0.68 0 0 Z " fill="#FCDE6C" transform="translate(36,89)"/>
<path d="M0 0 C0.495 3.465 0.495 3.465 1 7 C0.18273437 6.938125 -0.63453125 6.87625 -1.4765625 6.8125 C-5.88253417 7.04696412 -9.31360733 8.3695675 -13.375 10 C-14.11105469 10.28617188 -14.84710938 10.57234375 -15.60546875 10.8671875 C-17.40716893 11.56914861 -19.20409432 12.28334405 -21 13 C-21.33 12.34 -21.66 11.68 -22 11 C-21.36191406 10.72285156 -20.72382812 10.44570312 -20.06640625 10.16015625 C-19.24011719 9.79792969 -18.41382812 9.43570313 -17.5625 9.0625 C-16.73878906 8.70285156 -15.91507813 8.34320313 -15.06640625 7.97265625 C-13.05589883 7.16877677 -13.05589883 7.16877677 -12 6 C-22.69240075 5.12842148 -33.27592816 4.88186457 -44 5 C-41.01750169 2.10916127 -38.72301875 1.66904674 -34.61804199 1.71141052 C-33.92940063 1.73316849 -33.24075928 1.75492645 -32.53125 1.77734375 C-31.813927 1.78633194 -31.096604 1.79532013 -30.35754395 1.80458069 C-28.0711974 1.83453575 -25.78591552 1.88431119 -23.5 1.9375 C-21.21415841 1.98539245 -18.92859213 2.02872947 -16.64245605 2.05970764 C-15.22211016 2.07939922 -13.80185753 2.10895425 -12.38195801 2.14964294 C-7.7106962 2.22059247 -4.39406938 0 0 0 Z " fill="#170E09" transform="translate(94,100)"/>
<path d="M0 0 C0.66 0.33 1.32 0.66 2 1 C2.36625971 5.51720311 2.36625971 5.51720311 0.625 7.8125 C-1 9 -1 9 -3 9 C-3 9.66 -3 10.32 -3 11 C-3.99 11 -4.98 11 -6 11 C-6 11.66 -6 12.32 -6 13 C-7.32 13 -8.64 13 -10 13 C-11.28476308 25.14748395 -11.28476308 25.14748395 -9 37 C-8.34 37 -7.68 37 -7 37 C-7 40.63 -7 44.26 -7 48 C-7.33 48 -7.66 48 -8 48 C-8.16276042 45.98177083 -8.32552083 43.96354167 -8.48828125 41.9453125 C-8.87393036 39.60480784 -8.87393036 39.60480784 -12 38 C-12 36.68 -12 35.36 -12 34 C-12.66 34 -13.32 34 -14 34 C-15.06838196 17.02459783 -15.06838196 17.02459783 -12.51171875 12.1796875 C-8.28831067 8 -8.28831067 8 -5 8 C-4.731875 7.236875 -4.46375 6.47375 -4.1875 5.6875 C-3.05575888 3.12619116 -2.08776599 1.80307062 0 0 Z " fill="#877F85" transform="translate(27,30)"/>
<path d="M0 0 C0.33 0 0.66 0 1 0 C1 6.6 1 13.2 1 20 C-4.61 20 -10.22 20 -16 20 C-15 17 -15 17 -13.36328125 16.1484375 C-12.68652344 15.89320312 -12.00976562 15.63796875 -11.3125 15.375 C-6.11805025 12.96462583 -3.54939294 9.0105716 -1 4 C-0.33544855 1.82654493 -0.33544855 1.82654493 0 0 Z " fill="#F8F8F7" transform="translate(127,108)"/>
<path d="M0 0 C-0.33 0.99 -0.66 1.98 -1 3 C-7.49656925 5.57155866 -14.05266298 6.24098401 -20.5625 3.5 C-21.366875 3.005 -22.17125 2.51 -23 2 C-23 1.34 -23 0.68 -23 0 C-14.82602085 -4.1739468 -8.17397915 -4.1739468 0 0 Z " fill="#CD724E" transform="translate(66,79)"/>
<path d="M0 0 C0.56847656 0.2165625 1.13695312 0.433125 1.72265625 0.65625 C10.06107111 3.66309075 16.52338962 3.15278994 25 1 C23.53968285 4.84992703 21.71585152 6.28820323 18 8 C13.14912258 8.72042734 7.50893095 9.30704786 3.04296875 6.98046875 C1.6875 5.6875 1.6875 5.6875 0 3 C0 2.01 0 1.02 0 0 Z " fill="#E77E49" transform="translate(42,82)"/>
<path d="M0 0 C-0.33 0.33 -0.66 0.66 -1 1 C-1.07258946 3.18639453 -1.08373783 5.37500389 -1.0625 7.5625 C-1.05347656 8.76003906 -1.04445313 9.95757812 -1.03515625 11.19140625 C-1.02355469 12.11824219 -1.01195313 13.04507813 -1 14 C-4 14 -4 14 -6 13 C-5.67 12.01 -5.34 11.02 -5 10 C-5.66 10 -6.32 10 -7 10 C-7.33 10.99 -7.66 11.98 -8 13 C-8.66 13 -9.32 13 -10 13 C-10 12.34 -10 11.68 -10 11 C-10.66 11 -11.32 11 -12 11 C-11.67 8.03 -11.34 5.06 -11 2 C-9.54494642 1.47007308 -8.08581873 0.9513211 -6.625 0.4375 C-5.81289062 0.14746094 -5.00078125 -0.14257812 -4.1640625 -0.44140625 C-2 -1 -2 -1 0 0 Z " fill="#FACF58" transform="translate(80,78)"/>
<path d="M0 0 C1.0209375 0.433125 1.0209375 0.433125 2.0625 0.875 C5.32893093 2.12597355 8.62846123 3.07447955 12 4 C11.67 5.32 11.34 6.64 11 8 C12.65 7.67 14.3 7.34 16 7 C16 7.66 16 8.32 16 9 C15.34 9 14.68 9 14 9 C13.67 10.32 13.34 11.64 13 13 C12.01 13 11.02 13 10 13 C10 12.34 10 11.68 10 11 C9.21625 10.87625 8.4325 10.7525 7.625 10.625 C5 10 5 10 3 8 C0.93125966 7.3574765 0.93125966 7.3574765 -1 7 C-1.04254356 5.00045254 -1.04080783 2.99958364 -1 1 C-0.67 0.67 -0.34 0.34 0 0 Z " fill="#FBDD51" transform="translate(38,89)"/>
<path d="M0 0 C0.66 0.66 1.32 1.32 2 2 C1.625 4.625 1.625 4.625 1 7 C3.31 6.34 5.62 5.68 8 5 C8 4.34 8 3.68 8 3 C9.65 3 11.3 3 13 3 C14.61949011 5.57213134 15.04408751 6.67669159 14.625 9.75 C14.41875 10.4925 14.2125 11.235 14 12 C10.97580475 11.41196203 7.98241547 10.77321882 5 10 C4.67 11.32 4.34 12.64 4 14 C3.67 13.34 3.34 12.68 3 12 C1.02 12.99 1.02 12.99 -1 14 C-0.1875 12.0625 -0.1875 12.0625 1 10 C1.99 9.67 2.98 9.34 4 9 C2.35 8.67 0.7 8.34 -1 8 C-0.67 5.36 -0.34 2.72 0 0 Z " fill="#564B51" transform="translate(25,53)"/>
<path d="M0 0 C4.64954941 -0.32438717 7.34181411 0.02426559 11 3 C11.59375 5.99609375 11.59375 5.99609375 11.5 9.4375 C11.4896875 10.57058594 11.479375 11.70367187 11.46875 12.87109375 C10.97497769 16.1670239 10.23104686 17.58501045 8 20 C7.76216797 18.83984375 7.76216797 18.83984375 7.51953125 17.65625 C5.98226629 10.79376331 4.07912891 5.73282982 0 0 Z " fill="#DD7E4A" transform="translate(114,97)"/>
<path d="M0 0 C2.97 0.495 2.97 0.495 6 1 C6.226875 2.2375 6.45375 3.475 6.6875 4.75 C7.44835952 7.65463264 8.02581327 9.03247476 9.9375 11.4375 C14.46330697 13.74658519 18.97869614 13.82412246 24 14 C24 14.33 24 14.66 24 15 C15.69914269 15.51345509 9.48064025 14.70721995 2 11 C1.67 11.99 1.34 12.98 1 14 C0.01 13.34 -0.98 12.68 -2 12 C-1.34 11.34 -0.68 10.68 0 10 C0.24287489 7.55987051 0.24287489 7.55987051 0.125 4.875 C0.10695312 3.96492188 0.08890625 3.05484375 0.0703125 2.1171875 C0.04710937 1.41851562 0.02390625 0.71984375 0 0 Z " fill="#EBC665" transform="translate(34,78)"/>
<path d="M0 0 C0.66 0.33 1.32 0.66 2 1 C1.90234375 3.01822917 1.8046875 5.03645833 1.70703125 7.0546875 C1.80371094 7.69664063 1.90039062 8.33859375 2 9 C2.99 9.66 3.98 10.32 5 11 C3.35 11 1.7 11 0 11 C-0.16687448 13.41645782 -0.16687448 13.41645782 0 16 C0.66 16.66 1.32 17.32 2 18 C1.278125 18.4125 0.55625 18.825 -0.1875 19.25 C-5.7601741 22.43921837 -5.7601741 22.43921837 -8.8125 27.75 C-8.9053125 28.86375 -8.9053125 28.86375 -9 30 C-9.33 30 -9.66 30 -10 30 C-10.875 27.5625 -10.875 27.5625 -11 24 C-9.72572143 21.60576725 -8.2191886 19.49566606 -6.6328125 17.296875 C-2.71579006 11.78680516 -0.56109008 6.73308092 0 0 Z " fill="#281C16" transform="translate(104,75)"/>
<path d="M0 0 C0.33 0.66 0.66 1.32 1 2 C1.66 2.33 2.32 2.66 3 3 C2.98839844 3.73863281 2.97679688 4.47726563 2.96484375 5.23828125 C2.90270423 12.22453848 3.23455014 19.0562763 4 26 C3.34 25.67 2.68 25.34 2 25 C2 24.34 2 23.68 2 23 C1.34 23 0.68 23 0 23 C-1.60725635 19.78548731 -1.05748185 16.56387464 -1 13 C-1.66 12.67 -2.32 12.34 -3 12 C-3 9.69 -3 7.38 -3 5 C-2.01 5.33 -1.02 5.66 0 6 C0 4.02 0 2.04 0 0 Z " fill="#5C504E" transform="translate(74,38)"/>
<path d="M0 0 C2.33837891 -0.34057617 2.33837891 -0.34057617 5.2265625 -0.29296875 C6.7734375 -0.2784668 6.7734375 -0.2784668 8.3515625 -0.26367188 C9.43179688 -0.23853516 10.51203125 -0.21339844 11.625 -0.1875 C12.71296875 -0.17396484 13.8009375 -0.16042969 14.921875 -0.14648438 C17.61479291 -0.11105124 20.30745741 -0.05724303 23 0 C23.33 3.96 23.66 7.92 24 12 C20.04 12.66 16.08 13.32 12 14 C12.33 13.01 12.66 12.02 13 11 C16.465 10.505 16.465 10.505 20 10 C19.67 7.36 19.34 4.72 19 2 C16.4374282 1.97289877 13.87514635 1.95311229 11.3125 1.9375 C10.59126953 1.92912109 9.87003906 1.92074219 9.12695312 1.91210938 C5.28444618 1.89456368 1.73360474 2.06475779 -2 3 C-1.34 2.01 -0.68 1.02 0 0 Z " fill="#F3D75D" transform="translate(48,38)"/>
<path d="M0 0 C0.99 0.33 1.98 0.66 3 1 C1.16508812 5.74018901 -0.91941459 10.36413251 -3 15 C-6.875 13.125 -6.875 13.125 -8 12 C-8.30078125 9.6796875 -8.30078125 9.6796875 -8 7 C-6.35546875 4.9453125 -6.35546875 4.9453125 -4.1875 3.125 C-3.12595703 2.20074219 -3.12595703 2.20074219 -2.04296875 1.2578125 C-1.36878906 0.84273438 -0.69460937 0.42765625 0 0 Z " fill="#E3813B" transform="translate(103,93)"/>
<path d="M0 0 C0.33 0 0.66 0 1 0 C1.13277344 0.69867188 1.26554687 1.39734375 1.40234375 2.1171875 C1.57894531 3.02726562 1.75554687 3.93734375 1.9375 4.875 C2.19853516 6.23238281 2.19853516 6.23238281 2.46484375 7.6171875 C2.89963701 9.99956317 2.89963701 9.99956317 4 12 C4.06950541 13.54023996 4.08452357 15.08334988 4.0625 16.625 C4.05347656 17.44226563 4.04445313 18.25953125 4.03515625 19.1015625 C4.02355469 19.72804688 4.01195313 20.35453125 4 21 C3.01 21 2.02 21 1 21 C-2.1520273 15.08994881 -2.81799049 9.67140297 -2 3 C-1.34 2.01 -0.68 1.02 0 0 Z " fill="#F67B27" transform="translate(105,102)"/>
<path d="M0 0 C3.64780618 3.5372666 6.97993585 7.24639036 10.25390625 11.1328125 C12.02940354 13.03144271 13.8788571 14.50545292 16 16 C12.66666667 16.66666667 9.33333333 17.33333333 6 18 C5.67 16.35 5.34 14.7 5 13 C5.66 13 6.32 13 7 13 C6.4946875 12.31292969 5.989375 11.62585938 5.46875 10.91796875 C4.8190625 10.01691406 4.169375 9.11585937 3.5 8.1875 C2.8503125 7.29417969 2.200625 6.40085937 1.53125 5.48046875 C0 3 0 3 0 0 Z " fill="#151210" transform="translate(22,87)"/>
<path d="M0 0 C0.66 0 1.32 0 2 0 C1.44854729 5.23880078 0.57077907 9.97350697 -1 15 C-2.65 15 -4.3 15 -6 15 C-5.62834433 9.05350921 -3.85341397 4.62169588 0 0 Z " fill="#ACAAAF" transform="translate(88,109)"/>
<path d="M0 0 C7.20552118 1.84756953 13.78635494 5.81998724 18 12 C16 13 16 13 12.875 12.0625 C11.451875 11.5365625 11.451875 11.5365625 10 11 C10 10.01 10 9.02 10 8 C9.01 7.67 8.02 7.34 7 7 C3.875 5.6875 3.875 5.6875 1 4 C0.125 1.8125 0.125 1.8125 0 0 Z " fill="#786F77" transform="translate(79,19)"/>
<path d="M0 0 C1.875 0.625 1.875 0.625 4 2 C5.38327396 5.03002866 6.14886672 7.05717747 5.625 10.375 C5.41875 10.91125 5.2125 11.4475 5 12 C3.68 12 2.36 12 1 12 C1 11.34 1 10.68 1 10 C0.34 10 -0.32 10 -1 10 C-1.02689216 8.52093108 -1.04634621 7.04172517 -1.0625 5.5625 C-1.07410156 4.73878906 -1.08570312 3.91507812 -1.09765625 3.06640625 C-1 1 -1 1 0 0 Z " fill="#F47F2A" transform="translate(112,100)"/>
<path d="M0 0 C0.66 0.66 1.32 1.32 2 2 C1.625 4.625 1.625 4.625 1 7 C5.84468739 9.60759567 5.84468739 9.60759567 11 9 C11 9.99 11 10.98 11 12 C11.66 12.33 12.32 12.66 13 13 C11.68 14.32 10.36 15.64 9 17 C8.77570312 16.38640625 8.55140625 15.7728125 8.3203125 15.140625 C6.57487194 12.31073913 4.9690077 11.86066943 1.875 10.75 C0.96492188 10.41484375 0.05484375 10.0796875 -0.8828125 9.734375 C-1.58148438 9.49203125 -2.28015625 9.2496875 -3 9 C-2.69181644 7.68647977 -2.37832335 6.37420428 -2.0625 5.0625 C-1.88847656 4.33160156 -1.71445312 3.60070313 -1.53515625 2.84765625 C-1 1 -1 1 0 0 Z " fill="#E2CC5F" transform="translate(45,42)"/>
<path d="M0 0 C0.99 0 1.98 0 3 0 C3.99 4.29 4.98 8.58 6 13 C3.03 13 0.06 13 -3 13 C-2.34 12.67 -1.68 12.34 -1 12 C-1.309375 11.13375 -1.309375 11.13375 -1.625 10.25 C-2.09417284 7.43496298 -1.31267234 6.47091265 0 4 C0 2.68 0 1.36 0 0 Z " fill="#1B1213" transform="translate(99,112)"/>
<path d="M0 0 C0.66 0.33 1.32 0.66 2 1 C-6.20880859 5.20264801 -14.45079943 9.30625892 -22.875 13.0625 C-23.55820312 13.37324463 -24.24140625 13.68398926 -24.9453125 14.00415039 C-26.60406492 14.73217245 -28.29988058 15.37464435 -30 16 C-30.66 15.67 -31.32 15.34 -32 15 C-19.29599126 7.83313263 -19.29599126 7.83313263 -12.203125 5.7578125 C-8.63070647 4.52900187 -5.37771783 2.69396839 -2.06640625 0.890625 C-1.38449219 0.59671875 -0.70257813 0.3028125 0 0 Z " fill="#97989C" transform="translate(84,108)"/>
<path d="M0 0 C1.45986328 0.25716797 1.45986328 0.25716797 2.94921875 0.51953125 C3.72910156 0.73996094 4.50898437 0.96039063 5.3125 1.1875 C5.6425 1.8475 5.9725 2.5075 6.3125 3.1875 C4.3325 3.1875 2.3525 3.1875 0.3125 3.1875 C0.3125 3.8475 0.3125 4.5075 0.3125 5.1875 C0.9725 5.1875 1.6325 5.1875 2.3125 5.1875 C1.9825 6.1775 1.6525 7.1675 1.3125 8.1875 C0.85875 7.5275 0.405 6.8675 -0.0625 6.1875 C-4.01982033 3.1723988 -7.87754145 3.85704483 -12.6875 4.1875 C-10.27155978 0.44279265 -10.27155978 0.44279265 -7.85546875 -0.61328125 C-5.09410056 -0.8670286 -2.72500642 -0.5057088 0 0 Z " fill="#E0AE61" transform="translate(93.6875,71.8125)"/>
<path d="M0 0 C1.62600941 0.0870005 3.25089678 0.1951781 4.875 0.3125 C5.77992187 0.37050781 6.68484375 0.42851563 7.6171875 0.48828125 C10 1 10 1 12 4 C10.2984375 4.2165625 10.2984375 4.2165625 8.5625 4.4375 C5.19222799 4.61171478 5.19222799 4.61171478 4 6 C-0.04352289 5.53343967 -4.01928836 4.84439338 -8 4 C-7.67 3.34 -7.34 2.68 -7 2 C-5.02 2 -3.04 2 -1 2 C-0.67 1.34 -0.34 0.68 0 0 Z " fill="#4E372B" transform="translate(58,33)"/>
<path d="M0 0 C3.85867625 0.79152333 4.94073535 1.91991264 7.3125 5.125 C8.1478125 6.548125 8.1478125 6.548125 9 8 C8.505 7.835 8.01 7.67 7.5 7.5 C5.17107649 7.0342153 3.23713939 6.96564161 0.875 7 C-3 7 -3 7 -5 6 C-3.63016497 2.83884224 -3.0109362 2.0072908 0 0 Z " fill="#E77D3C" transform="translate(115,89)"/>
<path d="M0 0 C0.66 0.66 1.32 1.32 2 2 C2.99 2.33 3.98 2.66 5 3 C4.01 3.99 3.02 4.98 2 6 C3.98 6 5.96 6 8 6 C8 6.33 8 6.66 8 7 C6.9275 7.04125 5.855 7.0825 4.75 7.125 C0.81662321 7.64216163 0.81662321 7.64216163 -1.3125 10.8125 C-3.22207344 14.37366014 -3.22207344 14.37366014 -5 18 C-5.625 15.125 -5.625 15.125 -6 12 C-5.34 11.34 -4.68 10.68 -4 10 C-3.35232207 7.42938689 -3.35232207 7.42938689 -3 5 C-2.34 5 -1.68 5 -1 5 C-0.67 3.35 -0.34 1.7 0 0 Z " fill="#76655B" transform="translate(47,31)"/>
<path d="M0 0 C0.33 1.65 0.66 3.3 1 5 C1.66 5 2.32 5 3 5 C2.67 6.65 2.34 8.3 2 10 C-2.28904235 8.4114658 -4.32345526 5.56872632 -7 2 C-7 1.34 -7 0.68 -7 0 C-3.86650268 -1.04449911 -3.01031744 -0.93423645 0 0 Z " fill="#F5DA80" transform="translate(35,92)"/>
<path d="M0 0 C2 3 2 3 3.4375 6.0625 C4.82080155 9.2229398 4.82080155 9.2229398 8 11 C10.0492094 11.45139459 10.0492094 11.45139459 12.1875 11.625 C13.445625 11.74875 14.70375 11.8725 16 12 C15.01 12.66 14.02 13.32 13 14 C12.67 14.66 12.34 15.32 12 16 C6.93132931 14.1116717 3.40082475 12.40106733 0 8 C-0.875 4.25 -0.875 4.25 -1 1 C-0.67 0.67 -0.34 0.34 0 0 Z " fill="#392F24" transform="translate(28,64)"/>
<path d="M0 0 C0.99 2.97 1.98 5.94 3 9 C0.36 9.66 -2.28 10.32 -5 11 C-5.08096803 9.54257537 -5.13917774 8.08387193 -5.1875 6.625 C-5.22230469 5.81289062 -5.25710937 5.00078125 -5.29296875 4.1640625 C-5.19628906 3.44992188 -5.09960938 2.73578125 -5 2 C-2 0 -2 0 0 0 Z " fill="#E2C16C" transform="translate(27,66)"/>
<path d="M0 0 C3.90553559 1.59114413 6.46851171 3.62026433 9 7 C9.46107428 10.32404114 9.15730056 13.48604284 8.8125 16.8125 C8.74224609 17.69615234 8.67199219 18.57980469 8.59960938 19.49023438 C8.42350292 21.66221398 8.21493292 23.83151834 8 26 C6.02 26.99 6.02 26.99 4 28 C4.33 27.0925 4.66 26.185 5 25.25 C6.71823793 19.00875341 7.53999144 12.17847071 4.65625 6.2265625 C3.19834759 4.04658578 1.69594542 1.99879282 0 0 Z " fill="#979094" transform="translate(112,42)"/>
<path d="M0 0 C4.45965068 2.22982534 6.40574793 4.79552251 9 9 C9.66 9.66 10.32 10.32 11 11 C7.7 10.67 4.4 10.34 1 10 C0.67 6.7 0.34 3.4 0 0 Z " fill="#0E0F13" transform="translate(39,114)"/>
<path d="M0 0 C1.43791516 0.14168137 2.8753237 0.28851043 4.3125 0.4375 C5.11300781 0.51871094 5.91351563 0.59992188 6.73828125 0.68359375 C9 1 9 1 12 2 C12 2.66 12 3.32 12 4 C7.88004223 5.62882052 5.27974589 6.30770013 1 5 C0.34 4.67 -0.32 4.34 -1 4 C-1.99 4 -2.98 4 -4 4 C-4 3.34 -4 2.68 -4 2 C-2.68 2 -1.36 2 0 2 C0 1.34 0 0.68 0 0 Z " fill="#EA7C3E" transform="translate(50,77)"/>
<path d="M0 0 C1.32 0 2.64 0 4 0 C6.09350689 3.4019487 6.17942163 6.05272412 6 10 C4.35 10.33 2.7 10.66 1 11 C0.67 7.37 0.34 3.74 0 0 Z " fill="#A4A3AA" transform="translate(34,113)"/>
<path d="M0 0 C0.33 0 0.66 0 1 0 C0.97679687 0.70125 0.95359375 1.4025 0.9296875 2.125 C0.81497522 8.15558862 1.25643433 13.22443873 3 19 C3.66 19 4.32 19 5 19 C5 22.63 5 26.26 5 30 C4.67 30 4.34 30 4 30 C3.83723958 27.98177083 3.67447917 25.96354167 3.51171875 23.9453125 C3.12606964 21.60480784 3.12606964 21.60480784 0 20 C-1.43454432 16.45486174 -1.13287287 12.64610437 -1.125 8.875 C-1.12757812 7.63492188 -1.13015625 6.39484375 -1.1328125 5.1171875 C-1 2 -1 2 0 0 Z " fill="#6C666A" transform="translate(15,48)"/>
<path d="M0 0 C0.66 0.99 1.32 1.98 2 3 C1.67 3.66 1.34 4.32 1 5 C-1.33092377 5.34978553 -3.66483338 5.67976194 -6 6 C-8.49885285 6.79473422 -10.97939503 7.64948958 -13.4375 8.5625 C-14.67371094 9.01753906 -15.90992187 9.47257812 -17.18359375 9.94140625 C-18.11300781 10.29074219 -19.04242188 10.64007813 -20 11 C-20.33 10.34 -20.66 9.68 -21 9 C-20.41992188 8.74605469 -19.83984375 8.49210937 -19.2421875 8.23046875 C-18.46101563 7.88628906 -17.67984375 7.54210937 -16.875 7.1875 C-16.05128906 6.82527344 -15.22757812 6.46304688 -14.37890625 6.08984375 C-12.48518697 5.22227777 -10.63840354 4.25245684 -8.8125 3.25 C-5.65478007 1.84656892 -3.41802269 1.75585552 0 2 C0 1.34 0 0.68 0 0 Z " fill="#07060A" transform="translate(93,102)"/>
<path d="M0 0 C2.93804996 -0.08086376 5.87388075 -0.1404283 8.8125 -0.1875 C9.64587891 -0.21263672 10.47925781 -0.23777344 11.33789062 -0.26367188 C12.54155273 -0.27817383 12.54155273 -0.27817383 13.76953125 -0.29296875 C14.87711792 -0.31653442 14.87711792 -0.31653442 16.00708008 -0.34057617 C18.52230522 0.08925833 19.39441516 1.07463062 21 3 C17.71933701 4.09355433 17.16193064 3.8253569 14 3 C11.47125719 3.00810494 8.96263781 3.12693645 6.4375 3.2578125 C3.48971979 2.94602805 2.1904912 1.93696213 0 0 Z " fill="#776F71" transform="translate(48,16)"/>
<path d="M0 0 C0.66 0 1.32 0 2 0 C2.82638376 2.89234315 3 4.88742431 3 8 C3.185625 8.680625 3.37125 9.36125 3.5625 10.0625 C4 12 4 12 3 15 C3.185625 15.825 3.37125 16.65 3.5625 17.5 C4 20 4 20 2 23 C0.48462814 15.2472493 -0.27990605 7.89957062 0 0 Z " fill="#4A3E43" transform="translate(76,41)"/>
<path d="M0 0 C1.32 0 2.64 0 4 0 C4 1.98 4 3.96 4 6 C3.01 6.495 3.01 6.495 2 7 C1.67 7.99 1.34 8.98 1 10 C0.34 10 -0.32 10 -1 10 C-1 9.34 -1 8.68 -1 8 C-1.66 8 -2.32 8 -3 8 C-3 6.68 -3 5.36 -3 4 C-2.34 4 -1.68 4 -1 4 C-0.67 2.68 -0.34 1.36 0 0 Z " fill="#F8D855" transform="translate(71,81)"/>
<path d="M0 0 C2.97 0 5.94 0 9 0 C7 4 7 4 5.125 5.375 C3 6 3 6 0.75 5.125 C0.1725 4.75375 -0.405 4.3825 -1 4 C-0.67 2.68 -0.34 1.36 0 0 Z " fill="#DA7E41" transform="translate(104,87)"/>
<path d="M0 0 C2.33837891 -0.34057617 2.33837891 -0.34057617 5.2265625 -0.29296875 C6.7734375 -0.2784668 6.7734375 -0.2784668 8.3515625 -0.26367188 C9.43179688 -0.23853516 10.51203125 -0.21339844 11.625 -0.1875 C12.71296875 -0.17396484 13.8009375 -0.16042969 14.921875 -0.14648438 C17.61507409 -0.11104754 20.30729374 -0.06164331 23 0 C22.67 1.32 22.34 2.64 22 4 C22 3.34 22 2.68 22 2 C18.93744039 1.9729509 15.8751214 1.95313702 12.8125 1.9375 C11.94818359 1.92912109 11.08386719 1.92074219 10.19335938 1.91210938 C5.99713231 1.89603188 2.09063114 1.92440962 -2 3 C-1.34 2.01 -0.68 1.02 0 0 Z " fill="#D4B157" transform="translate(48,38)"/>
<path d="M0 0 C0 3 0 3 -1 5 C-1.66 5 -2.32 5 -3 5 C-5.4420792 11.83782175 -5.62022758 18.79431807 -6 26 C-6.33 26 -6.66 26 -7 26 C-8.0735426 8.9426009 -8.0735426 8.9426009 -5.44140625 4.1796875 C-3.70633415 2.51094612 -2.09380321 1.18043497 0 0 Z " fill="#ABA7AB" transform="translate(20,38)"/>
<path d="M0 0 C2.97 0 5.94 0 9 0 C9 0.66 9 1.32 9 2 C7.68 2.33 6.36 2.66 5 3 C5 3.66 5 4.32 5 5 C7.475 5.99 7.475 5.99 10 7 C6.23375329 8.25541557 4.62811066 7.37061958 1 6 C0.67 4.02 0.34 2.04 0 0 Z " fill="#0A0B0F" transform="translate(29,103)"/>
<path d="M0 0 C0.99 0.99 1.98 1.98 3 3 C0 5 0 5 -4 5 C-4.33 5.66 -4.66 6.32 -5 7 C-5 6.01 -5 5.02 -5 4 C-6.98 4.99 -6.98 4.99 -9 6 C-9 5.01 -9 4.02 -9 3 C-5.72933122 0.81955415 -4.74581273 0.90142598 -1 1 C-0.67 0.67 -0.34 0.34 0 0 Z " fill="#393336" transform="translate(95,105)"/>
<path d="M0 0 C0.66 0 1.32 0 2 0 C2 1.32 2 2.64 2 4 C-3.72581414 5.93548647 -8.87467462 7.6250332 -15 7 C-15.99 6.34 -16.98 5.68 -18 5 C-16.66195312 4.80083984 -16.66195312 4.80083984 -15.296875 4.59765625 C-14.12640625 4.42105469 -12.9559375 4.24445313 -11.75 4.0625 C-10.00976562 3.80146484 -10.00976562 3.80146484 -8.234375 3.53515625 C-4.56631505 2.96664683 -4.56631505 2.96664683 -1 2 C-0.67 1.34 -0.34 0.68 0 0 Z " fill="#58140F" transform="translate(66,79)"/>
<path d="M0 0 C0.33 1.32 0.66 2.64 1 4 C-4.66384778 8.94080338 -4.66384778 8.94080338 -8.46875 9.109375 C-10.68268928 8.84314179 -12.82701731 8.49766724 -15 8 C-15 7.67 -15 7.34 -15 7 C-14.12988281 6.87044922 -14.12988281 6.87044922 -13.2421875 6.73828125 C-7.41168056 5.6895597 -4.24345436 4.13464784 0 0 Z " fill="#272013" transform="translate(82,70)"/>
<path d="M0 0 C-1.25 2 -1.25 2 -3 4 C-4.32 4 -5.64 4 -7 4 C-7 4.66 -7 5.32 -7 6 C-8.98 6 -10.96 6 -13 6 C-5.71812081 -1.90604027 -5.71812081 -1.90604027 0 0 Z " fill="#7B7479" transform="translate(49,18)"/>
<path d="M0 0 C2.475 0.495 2.475 0.495 5 1 C5 1.66 5 2.32 5 3 C5.66 3 6.32 3 7 3 C7 2.01 7 1.02 7 0 C9.64 0 12.28 0 15 0 C13.27593985 2.29874686 11.9363344 3.80406685 9.05859375 4.40625 C6.9375 4.5 6.9375 4.5 3 4 C1 2 1 2 0 0 Z " fill="#F2DA7A" transform="translate(38,102)"/>
<path d="M0 0 C0.33 0.66 0.66 1.32 1 2 C1.99 2 2.98 2 4 2 C4.33 2.99 4.66 3.98 5 5 C5.66 4.34 6.32 3.68 7 3 C7.33 3.99 7.66 4.98 8 6 C7 7 7 7 4.49609375 7.09765625 C2.98208984 7.08025391 2.98208984 7.08025391 1.4375 7.0625 C0.42558594 7.05347656 -0.58632813 7.04445313 -1.62890625 7.03515625 C-2.41136719 7.02355469 -3.19382813 7.01195313 -4 7 C-3.34 6.67 -2.68 6.34 -2 6 C-1.27306096 4.02111039 -0.60183749 2.02045442 0 0 Z " fill="#2D281E" transform="translate(52,68)"/>
<path d="M0 0 C5.75 -0.125 5.75 -0.125 8 1 C8 1.66 8 2.32 8 3 C8.99 2.67 9.98 2.34 11 2 C11 2.66 11 3.32 11 4 C8 6 8 6 4.9375 5.9375 C2 5 2 5 0.625 2.4375 C0.41875 1.633125 0.2125 0.82875 0 0 Z " fill="#4E434C" transform="translate(87,61)"/>
<path d="M0 0 C2.61187991 3.91781986 2.03434152 6.02451706 1.4921875 10.546875 C0.90070201 13.49491381 -0.17387892 15.61810294 -2 18 C-2.33 17.34 -2.66 16.68 -3 16 C-2.67 15.34 -2.34 14.68 -2 14 C-1.79581065 12.00348191 -1.63477704 10.00240179 -1.5 8 C-1.11111111 2.22222222 -1.11111111 2.22222222 0 0 Z " fill="#6D4636" transform="translate(126,99)"/>
<path d="M0 0 C0.99 0.66 1.98 1.32 3 2 C5.0492094 2.45139459 5.0492094 2.45139459 7.1875 2.625 C8.445625 2.74875 9.70375 2.8725 11 3 C11 3.66 11 4.32 11 5 C10.22914062 4.98839844 9.45828125 4.97679688 8.6640625 4.96484375 C7.66117188 4.95582031 6.65828125 4.94679688 5.625 4.9375 C4.12839844 4.92009766 4.12839844 4.92009766 2.6015625 4.90234375 C0.01567547 4.81993398 0.01567547 4.81993398 -2 6 C-2.66 5.67 -3.32 5.34 -4 5 C-4 4.34 -4 3.68 -4 3 C-2.68 2.67 -1.36 2.34 0 2 C0 1.34 0 0.68 0 0 Z " fill="#1E1A13" transform="translate(38,103)"/>
<path d="M0 0 C0.99 0 1.98 0 3 0 C3.36552803 1.41377782 3.71695495 2.83120576 4.0625 4.25 C4.25972656 5.03890625 4.45695312 5.8278125 4.66015625 6.640625 C5.01497267 9.10394822 4.76877544 10.65604132 4 13 C3.67 11.68 3.34 10.36 3 9 C2.01 9 1.02 9 0 9 C0 6.03 0 3.06 0 0 Z " fill="#0E0D0C" transform="translate(53,61)"/>
<path d="M0 0 C0.99 0.33 1.98 0.66 3 1 C3 1.66 3 2.32 3 3 C5.475 3.99 5.475 3.99 8 5 C8 5.99 8 6.98 8 8 C6.68 8.33 5.36 8.66 4 9 C4 8.34 4 7.68 4 7 C3.34 7 2.68 7 2 7 C2 6.34 2 5.68 2 5 C1.34 5 0.68 5 0 5 C0 3.35 0 1.7 0 0 Z " fill="#736B72" transform="translate(98,31)"/>
<path d="M0 0 C0 0.66 0 1.32 0 2 C-0.99 2.33 -1.98 2.66 -3 3 C-3 6.63 -3 10.26 -3 14 C-3.99 13.67 -4.98 13.34 -6 13 C-7.34622701 6.75840203 -7.34622701 6.75840203 -5.6875 3.125 C-3.81025292 0.76105924 -3.02391091 0 0 0 Z " fill="#994832" transform="translate(27,75)"/>
<path d="M0 0 C0.66 0 1.32 0 2 0 C2.33 0.99 2.66 1.98 3 3 C-5.07744875 8.74031891 -5.07744875 8.74031891 -11 8 C-8.64046906 5.64046906 -7.22104383 5.50858587 -4 5 C-4 4.01 -4 3.02 -4 2 C-3.01 1.67 -2.02 1.34 -1 1 C-0.67 0.67 -0.34 0.34 0 0 Z " fill="#D7B25E" transform="translate(92,95)"/>
<path d="M0 0 C0.66 0.33 1.32 0.66 2 1 C2 1.66 2 2.32 2 3 C1.06027344 3.09087891 1.06027344 3.09087891 0.1015625 3.18359375 C-0.71570313 3.26738281 -1.53296875 3.35117187 -2.375 3.4375 C-3.18710938 3.51871094 -3.99921875 3.59992187 -4.8359375 3.68359375 C-7.04272805 3.89090114 -7.04272805 3.89090114 -9 5 C-9 4.34 -9 3.68 -9 3 C-9.66 2.67 -10.32 2.34 -11 2 C-7.36178302 -0.32845886 -4.23971058 -0.23553948 0 0 Z " fill="#32291C" transform="translate(71,50)"/>
<path d="M0 0 C3.59634744 3.49359465 6.83451967 7.11098131 10 11 C9.34 11 8.68 11 8 11 C7.67 11.66 7.34 12.32 7 13 C5.82479354 11.40207898 4.66008753 9.79643092 3.5 8.1875 C2.8503125 7.29417969 2.200625 6.40085937 1.53125 5.48046875 C0 3 0 3 0 0 Z " fill="#32231A" transform="translate(22,87)"/>
<path d="M0 0 C0.33 0.66 0.66 1.32 1 2 C1.66 2 2.32 2 3 2 C3.33 3.32 3.66 4.64 4 6 C2.68 6.33 1.36 6.66 0 7 C-0.33 6.34 -0.66 5.68 -1 5 C-2.98 5 -4.96 5 -7 5 C-2.25 1.125 -2.25 1.125 0 0 Z " fill="#F1D060" transform="translate(67,87)"/>
<path d="M0 0 C0.33 0.66 0.66 1.32 1 2 C1.66 2.33 2.32 2.66 3 3 C2.67 4.98 2.34 6.96 2 9 C1.01 8.67 0.02 8.34 -1 8 C-1 6.35 -1 4.7 -1 3 C-3.64 3 -6.28 3 -9 3 C-9 2.67 -9 2.34 -9 2 C-6.03 1.34 -3.06 0.68 0 0 Z " fill="#69543F" transform="translate(72,35)"/>
<path d="M0 0 C0.33 0 0.66 0 1 0 C1.19406478 1.64507218 1.38007935 3.29109594 1.5625 4.9375 C1.66691406 5.85402344 1.77132812 6.77054687 1.87890625 7.71484375 C1.91886719 8.46894531 1.95882812 9.22304687 2 10 C1 11 1 11 -1.06640625 11.09765625 C-1.89011719 11.08605469 -2.71382813 11.07445313 -3.5625 11.0625 C-4.38878906 11.05347656 -5.21507813 11.04445313 -6.06640625 11.03515625 C-6.70449219 11.02355469 -7.34257813 11.01195313 -8 11 C-6 9 -6 9 -3.375 8.875 C-2.59125 8.91625 -1.8075 8.9575 -1 9 C-0.67 6.03 -0.34 3.06 0 0 Z " fill="#57322A" transform="translate(111,115)"/>
<path d="M0 0 C4.77576339 0.4682121 8.04476345 1.24331998 12 4 C11.34 5.32 10.68 6.64 10 8 C9.649375 7.566875 9.29875 7.13375 8.9375 6.6875 C6.21514365 4.31641544 3.35241784 3.3283165 0 2 C0 1.34 0 0.68 0 0 Z " fill="#2C2116" transform="translate(41,51)"/>
<path d="M0 0 C0.33 1.32 0.66 2.64 1 4 C0.195625 4.556875 -0.60875 5.11375 -1.4375 5.6875 C-4.24228216 8.21864487 -4.69381595 9.32579134 -5 13 C-5.33 13 -5.66 13 -6 13 C-6.95020028 10.00321449 -7.46463605 7.93113064 -6.0234375 5.04296875 C-2.51081976 0 -2.51081976 0 0 0 Z " fill="#33150D" transform="translate(100,92)"/>
<path d="M0 0 C1.20272819 2.40545638 1.10071472 3.94996953 1.0625 6.625 C1.05347656 7.44226563 1.04445313 8.25953125 1.03515625 9.1015625 C1.02355469 9.72804688 1.01195313 10.35453125 1 11 C0.67 11 0.34 11 0 11 C0 8.69 0 6.38 0 4 C-5.94 3.01 -5.94 3.01 -12 2 C-12 1.67 -12 1.34 -12 1 C-10.56274129 0.83126522 -9.12518162 0.66509263 -7.6875 0.5 C-6.88699219 0.4071875 -6.08648437 0.314375 -5.26171875 0.21875 C-3 0 -3 0 0 0 Z " fill="#775B3C" transform="translate(103,71)"/>
<path d="M0 0 C2.0625 0.4375 2.0625 0.4375 4 1 C4.5625 2.9375 4.5625 2.9375 5 5 C4 6 4 6 1.4375 6.0625 C0.2309375 6.0315625 0.2309375 6.0315625 -1 6 C-1.042721 4.33388095 -1.04063832 2.66617115 -1 1 C-0.67 0.67 -0.34 0.34 0 0 Z " fill="#272727" transform="translate(61,59)"/>
<path d="M0 0 C1.32 0 2.64 0 4 0 C4.05447047 1.41623216 4.09300508 2.83308191 4.125 4.25 C4.14820312 5.03890625 4.17140625 5.8278125 4.1953125 6.640625 C3.9828378 9.20731941 3.28654105 10.7916067 2 13 C0 10 0 10 0.375 7.8125 C0.58125 7.214375 0.7875 6.61625 1 6 C1.66 6 2.32 6 3 6 C2.01 4.02 1.02 2.04 0 0 Z " fill="#EABD67" transform="translate(99,75)"/>
<path d="M0 0 C0.99 0.33 1.98 0.66 3 1 C3 3.64 3 6.28 3 9 C2.34 9 1.68 9 1 9 C0.67 9.66 0.34 10.32 0 11 C0 7.33333333 0 3.66666667 0 0 Z " fill="#F07C2E" transform="translate(121,100)"/>
<path d="M0 0 C0.33 0 0.66 0 1 0 C1.3125 3.1875 1.3125 3.1875 1 7 C-1.5 9.9375 -1.5 9.9375 -4 12 C-4.99 11.67 -5.98 11.34 -7 11 C-7 9.35 -7 7.7 -7 6 C-5.515 6.99 -5.515 6.99 -4 8 C-1.10067643 5.60490662 -0.49831724 3.68754757 0 0 Z " fill="#C57749" transform="translate(119,113)"/>
<path d="M0 0 C1.98 0 3.96 0 6 0 C5.67 1.65 5.34 3.3 5 5 C3.35 4.67 1.7 4.34 0 4 C0 2.68 0 1.36 0 0 Z " fill="#252123" transform="translate(34,60)"/>
<path d="M0 0 C0.66 0.66 1.32 1.32 2 2 C1.70700977 3.67422986 1.37309899 5.34178227 1 7 C1.33 7.66 1.66 8.32 2 9 C0.35 9 -1.3 9 -3 9 C-2.69181644 7.68647977 -2.37832335 6.37420428 -2.0625 5.0625 C-1.88847656 4.33160156 -1.71445312 3.60070313 -1.53515625 2.84765625 C-1 1 -1 1 0 0 Z " fill="#F4D865" transform="translate(45,42)"/>
<path d="M0 0 C3.3 0 6.6 0 10 0 C6.09987886 2.92509086 4.61691161 3.47535095 0 4 C0 2.68 0 1.36 0 0 Z " fill="#0D0C12" transform="translate(49,119)"/>
<path d="M0 0 C0.66 0 1.32 0 2 0 C2 2.31 2 4.62 2 7 C0.02 7.99 0.02 7.99 -2 9 C-2.125 5.625 -2.125 5.625 -2 2 C-1.34 1.34 -0.68 0.68 0 0 Z " fill="#F37622" transform="translate(116,113)"/>
<path d="M0 0 C-0.4952217 3.66464055 -1.0208206 5.70832354 -4 8 C-4.99 8.33 -5.98 8.66 -7 9 C-4.4 0 -4.4 0 0 0 Z " fill="#E18049" transform="translate(110,96)"/>
<path d="M0 0 C1.65 1.65 3.3 3.3 5 5 C3.1875 6.5625 3.1875 6.5625 1 8 C0.01 7.67 -0.98 7.34 -2 7 C-1.125 1.125 -1.125 1.125 0 0 Z " fill="#371F14" transform="translate(101,87)"/>
<path d="M0 0 C2.475 0.99 2.475 0.99 5 2 C5 3.98 5 5.96 5 8 C4.01 8.33 3.02 8.66 2 9 C1.34 6.03 0.68 3.06 0 0 Z " fill="#F9D96F" transform="translate(34,78)"/>
<path d="M0 0 C0 3 0 6 0 9 C-0.66 9 -1.32 9 -2 9 C-2.66 9.99 -3.32 10.98 -4 12 C-3.88648483 10.18674449 -3.75887039 8.37436643 -3.625 6.5625 C-3.55539062 5.55316406 -3.48578125 4.54382812 -3.4140625 3.50390625 C-3.27742187 2.67761719 -3.14078125 1.85132813 -3 1 C-1 0 -1 0 0 0 Z " fill="#514950" transform="translate(19,47)"/>
<path d="M0 0 C0.33 0 0.66 0 1 0 C1.08133791 1.91595968 1.13934367 3.83291932 1.1875 5.75 C1.22230469 6.81734375 1.25710937 7.8846875 1.29296875 8.984375 C0.97082786 12.30027855 0.22851086 13.59016673 -2 16 C-2 13.36 -2 10.72 -2 8 C-1.34 8 -0.68 8 0 8 C0 5.36 0 2.72 0 0 Z " fill="#E6854D" transform="translate(124,101)"/>
<path d="M0 0 C3.82964655 1.56022637 6.32190489 3.87555571 9 7 C9 8.32 9 9.64 9 11 C8.34 11 7.68 11 7 11 C5.52734375 9.1015625 5.52734375 9.1015625 3.9375 6.625 C3.41027344 5.81289063 2.88304688 5.00078125 2.33984375 4.1640625 C1 2 1 2 0 0 Z " fill="#C4C0C4" transform="translate(112,42)"/>
<path d="M0 0 C0.66 0.99 1.32 1.98 2 3 C1.67 3.99 1.34 4.98 1 6 C-0.65 6 -2.3 6 -4 6 C-4 4.68 -4 3.36 -4 2 C-2.68 1.34 -1.36 0.68 0 0 Z " fill="#A4A3A8" transform="translate(86,118)"/>
<path d="M0 0 C1.5625 1.25 1.5625 1.25 3 3 C2.6875 5.1875 2.6875 5.1875 2 7 C1.29875 6.525625 0.5975 6.05125 -0.125 5.5625 C-3.16081337 3.91260143 -5.59168786 3.39631536 -9 3 C-9 2.67 -9 2.34 -9 2 C-6.03 2 -3.06 2 0 2 C0 1.34 0 0.68 0 0 Z " fill="#3A1711" transform="translate(123,94)"/>
<path d="M0 0 C-1.125 2 -1.125 2 -3 4 C-4.99958364 4.04080783 -7.00045254 4.04254356 -9 4 C-9.66 4.99 -10.32 5.98 -11 7 C-11 5.35 -11 3.7 -11 2 C-9.54494642 1.47007308 -8.08581873 0.9513211 -6.625 0.4375 C-5.81289062 0.14746094 -5.00078125 -0.14257812 -4.1640625 -0.44140625 C-2 -1 -2 -1 0 0 Z " fill="#F1D56E" transform="translate(80,78)"/>
<path d="M0 0 C0.33 0 0.66 0 1 0 C0.67 3.96 0.34 7.92 0 12 C-2 9 -2 9 -2 6 C-2.99 5.67 -3.98 5.34 -5 5 C-4.67 4.01 -4.34 3.02 -4 2 C-3.01 2.33 -2.02 2.66 -1 3 C-0.67 2.01 -0.34 1.02 0 0 Z " fill="#4E434A" transform="translate(117,56)"/>
<path d="M0 0 C1.32 0.33 2.64 0.66 4 1 C4 3.31 4 5.62 4 8 C2.68 7.34 1.36 6.68 0 6 C0 4.02 0 2.04 0 0 Z " fill="#88734F" transform="translate(71,43)"/>
<path d="M0 0 C0.66 0.66 1.32 1.32 2 2 C2.99 2.33 3.98 2.66 5 3 C4.01 3.99 3.02 4.98 2 6 C3.98 6 5.96 6 8 6 C8 6.33 8 6.66 8 7 C6.329375 7.2165625 6.329375 7.2165625 4.625 7.4375 C1.17857953 7.78372035 1.17857953 7.78372035 -1 9 C-1 5.72724974 -0.70074844 3.153368 0 0 Z " fill="#6F5C50" transform="translate(47,31)"/>
<path d="M0 0 C2.97 0.99 5.94 1.98 9 3 C7.02 3.99 7.02 3.99 5 5 C5 5.66 5 6.32 5 7 C3.0625 6.3125 3.0625 6.3125 1 5 C0.25 2.375 0.25 2.375 0 0 Z " fill="#D17851" transform="translate(42,82)"/>
<path d="M0 0 C0.33 0.99 0.66 1.98 1 3 C-0.32 3 -1.64 3 -3 3 C-3.33 4.32 -3.66 5.64 -4 7 C-4.33 6.34 -4.66 5.68 -5 5 C-6.98 5.99 -6.98 5.99 -9 7 C-8.25675659 4.60510457 -7.52942646 3.29222384 -5.30859375 2.06640625 C-3.55926499 1.32780077 -1.78065851 0.65950315 0 0 Z " fill="#766A66" transform="translate(33,60)"/>
<path d="M0 0 C0.53625 0.226875 1.0725 0.45375 1.625 0.6875 C-0.44256277 3.4847908 -1.51940371 3.71442273 -5.0625 4.375 C-6.155625 4.478125 -7.24875 4.58125 -8.375 4.6875 C-8.375 4.0275 -8.375 3.3675 -8.375 2.6875 C-2.95961538 -0.38942308 -2.95961538 -0.38942308 0 0 Z " fill="#726672" transform="translate(44.375,32.3125)"/>
<path d="M0 0 C2.6875 0.875 2.6875 0.875 5 2 C3 3 3 3 -1 3 C-1.66 4.32 -2.32 5.64 -3 7 C-3.66 6.67 -4.32 6.34 -5 6 C-3.63016497 2.83884224 -3.0109362 2.0072908 0 0 Z " fill="#D17E4E" transform="translate(115,89)"/>
<path d="M0 0 C2.5 1.5625 2.5 1.5625 5 4 C5.3125 7.75 5.3125 7.75 5 11 C4.67 11 4.34 11 4 11 C4 9.35 4 7.7 4 6 C3.34 6 2.68 6 2 6 C2 5.34 2 4.68 2 4 C1.34 4 0.68 4 0 4 C0 2.68 0 1.36 0 0 Z " fill="#B94B20" transform="translate(30,76)"/>
<path d="M0 0 C3.4375 0.8125 3.4375 0.8125 7 2 C7.33 2.99 7.66 3.98 8 5 C6.68 5.33 5.36 5.66 4 6 C2.68 4.02 1.36 2.04 0 0 Z " fill="#756858" transform="translate(79,67)"/>
<path d="M0 0 C0.99 0.33 1.98 0.66 3 1 C2.3125 2.9375 2.3125 2.9375 1 5 C-1.625 5.75 -1.625 5.75 -4 6 C-2.84826645 3.53199953 -1.95216435 1.95216435 0 0 Z " fill="#736C72" transform="translate(33,25)"/>
<path d="M0 0 C0.66 0.33 1.32 0.66 2 1 C0.35 2.65 -1.3 4.3 -3 6 C-3 5.34 -3 4.68 -3 4 C-3.99 4 -4.98 4 -6 4 C-6 3.34 -6 2.68 -6 2 C-4.0625 1.4375 -4.0625 1.4375 -2 1 C-1.67 1.33 -1.34 1.66 -1 2 C-0.67 1.34 -0.34 0.68 0 0 Z " fill="#ECB865" transform="translate(97,91)"/>
<path d="M0 0 C-1.75 3.875 -1.75 3.875 -4 5 C-4 4.34 -4 3.68 -4 3 C-5.65 3 -7.3 3 -9 3 C-5.73209435 0.82139623 -3.91954654 0 0 0 Z " fill="#D37A52" transform="translate(67,83)"/>
<path d="M0 0 C2.475 0.495 2.475 0.495 5 1 C5 4.63 5 8.26 5 12 C4.67 12 4.34 12 4 12 C3.83723958 9.98177083 3.67447917 7.96354167 3.51171875 5.9453125 C3.12606964 3.60480784 3.12606964 3.60480784 0 2 C0 1.34 0 0.68 0 0 Z " fill="#9E9E9B" transform="translate(15,66)"/>
<path d="M0 0 C-0.33 0.66 -0.66 1.32 -1 2 C-3.3140622 2.73075648 -5.64828869 3.40138258 -8 4 C-8.33 3.01 -8.66 2.02 -9 1 C-5.8035914 -0.06546953 -3.34252724 -0.07427838 0 0 Z " fill="#352A2C" transform="translate(30,61)"/>
<path d="M0 0 C2.475 0.99 2.475 0.99 5 2 C5 3.65 5 5.3 5 7 C4.67 6.34 4.34 5.68 4 5 C3.01 5 2.02 5 1 5 C0.67 3.35 0.34 1.7 0 0 Z " fill="#483C45" transform="translate(19,53)"/>
<path d="M0 0 C2.125 0.375 2.125 0.375 4 1 C2.35830472 3.02054804 0.69088222 5.02043058 -1 7 C-1.33 7 -1.66 7 -2 7 C-2.125 4.625 -2.125 4.625 -2 2 C-1.34 1.34 -0.68 0.68 0 0 Z " fill="#584D51" transform="translate(55,19)"/>
<path d="M0 0 C1.134375 0.020625 2.26875 0.04125 3.4375 0.0625 C3.4375 0.3925 3.4375 0.7225 3.4375 1.0625 C1.4575 1.0625 -0.5225 1.0625 -2.5625 1.0625 C-1.5725 2.7125 -0.5825 4.3625 0.4375 6.0625 C-0.5525 6.0625 -1.5425 6.0625 -2.5625 6.0625 C-3.2225 4.4125 -3.8825 2.7625 -4.5625 1.0625 C-3.5625 0.0625 -3.5625 0.0625 0 0 Z " fill="#58291C" transform="translate(116.5625,94.9375)"/>
<path d="M0 0 C0.99 0 1.98 0 3 0 C3 1.65 3 3.3 3 5 C2.01 5.33 1.02 5.66 0 6 C-0.38218767 4.34385343 -0.71395102 2.67542976 -1 1 C-0.67 0.67 -0.34 0.34 0 0 Z " fill="#F9DF48" transform="translate(72,82)"/>
<path d="M0 0 C-0.66 1.32 -1.32 2.64 -2 4 C-3.32 4 -4.64 4 -6 4 C-6 2.68 -6 1.36 -6 0 C-2.25 -1.125 -2.25 -1.125 0 0 Z " fill="#E3E3E2" transform="translate(112,79)"/>
<path d="M0 0 C2.29013653 3.4352048 2.17842973 4.985331 2 9 C0.5 7.8125 0.5 7.8125 -1 6 C-1.25 3.375 -1.25 3.375 -1 1 C-0.67 0.67 -0.34 0.34 0 0 Z " fill="#291E14" transform="translate(28,64)"/>
<path d="M0 0 C-0.99 0.33 -1.98 0.66 -3 1 C-3.99 2.485 -3.99 2.485 -5 4 C-6.32 4 -7.64 4 -9 4 C-9 3.01 -9 2.02 -9 1 C-5.57367167 -0.61798838 -3.61944899 -1.34053666 0 0 Z " fill="#F7D453" transform="translate(55,40)"/>
<path d="M0 0 C-0.99 1.485 -0.99 1.485 -2 3 C-5.625 3.1875 -5.625 3.1875 -9 3 C-8 1 -8 1 -5.625 -0.1875 C-3 -1 -3 -1 0 0 Z " fill="#837C80" transform="translate(49,18)"/>
<path d="M0 0 C0 0.99 0 1.98 0 3 C-3.33333333 6 -3.33333333 6 -6 6 C-6 5.34 -6 4.68 -6 4 C-5.34 4 -4.68 4 -4 4 C-3.67 3.01 -3.34 2.02 -3 1 C-2.01 0.67 -1.02 0.34 0 0 Z " fill="#CA572A" transform="translate(95,88)"/>
<path d="M0 0 C1.32 0 2.64 0 4 0 C3.67 1.65 3.34 3.3 3 5 C2.01 5 1.02 5 0 5 C0 3.35 0 1.7 0 0 Z " fill="#342B2D" transform="translate(112,68)"/>
<path d="M0 0 C-0.33 1.32 -0.66 2.64 -1 4 C-2.32 4.33 -3.64 4.66 -5 5 C-5 4.01 -5 3.02 -5 2 C-2 0 -2 0 0 0 Z " fill="#504649" transform="translate(85,61)"/>
<path d="M0 0 C3.3125 -0.1875 3.3125 -0.1875 7 0 C7.99 0.99 8.98 1.98 10 3 C6.7 2.67 3.4 2.34 0 2 C0 1.34 0 0.68 0 0 Z " fill="#0A0A0B" transform="translate(40,122)"/>
<path d="M0 0 C2.475 0.495 2.475 0.495 5 1 C5 1.66 5 2.32 5 3 C6.32 3.33 7.64 3.66 9 4 C6.1875 4.25 6.1875 4.25 3 4 C1.125 2 1.125 2 0 0 Z " fill="#F3DA92" transform="translate(38,102)"/>
<path d="M0 0 C0.99 0.33 1.98 0.66 3 1 C1.25 5.875 1.25 5.875 -1 7 C-1.04254356 5.00045254 -1.04080783 2.99958364 -1 1 C-0.67 0.67 -0.34 0.34 0 0 Z " fill="#D7814C" transform="translate(103,93)"/>
<path d="M0 0 C-0.66 0.66 -1.32 1.32 -2 2 C-4.1640625 1.9765625 -4.1640625 1.9765625 -6.625 1.625 C-7.44226563 1.51414062 -8.25953125 1.40328125 -9.1015625 1.2890625 C-9.72804688 1.19367188 -10.35453125 1.09828125 -11 1 C-11 0.67 -11 0.34 -11 0 C-6.98195309 -0.84098656 -3.98196457 -1.05404945 0 0 Z " fill="#3B3327" transform="translate(78,77)"/>
<path d="M0 0 C1.485 0.99 1.485 0.99 3 2 C3.66 1.34 4.32 0.68 5 0 C5.33 0.99 5.66 1.98 6 3 C5 4 5 4 1.9375 4.0625 C0.4834375 4.0315625 0.4834375 4.0315625 -1 4 C-0.67 2.68 -0.34 1.36 0 0 Z " fill="#847759" transform="translate(54,71)"/>
<path d="M0 0 C0.33 0.99 0.66 1.98 1 3 C1.99 3 2.98 3 4 3 C4.33 4.65 4.66 6.3 5 8 C2 7 2 7 0 4 C0 2.68 0 1.36 0 0 Z " fill="#4D4547" transform="translate(16,60)"/>
<path d="M0 0 C0.99 0.33 1.98 0.66 3 1 C3 2.98 3 4.96 3 7 C2.34 7 1.68 7 1 7 C0.67 4.69 0.34 2.38 0 0 Z " fill="#827D7E" transform="translate(73,54)"/>
</svg>
