<?xml version="1.0" encoding="UTF-8"?>
<svg version="1.1" xmlns="http://www.w3.org/2000/svg" width="48" height="48">
<path d="M0 0 C15.84 0 31.68 0 48 0 C48 15.84 48 31.68 48 48 C32.16 48 16.32 48 0 48 C0 32.16 0 16.32 0 0 Z " fill="#645860" transform="translate(0,0)"/>
<path d="M0 0 C15.84 0 31.68 0 48 0 C48 12.21 48 24.42 48 37 C46.68 35.68 45.36 34.36 44 33 C41.8618034 32.2127322 41.8618034 32.2127322 40 32 C40 31.01 40 30.02 40 29 C40.66 28.4225 41.32 27.845 42 27.25 C44.2422407 25.06521865 44.2422407 25.06521865 44.875 21.75 C43.27601501 14.89720719 36.59821582 11.73214388 31 8 C25.8584112 6.80428167 20.01217922 5.5825039 15.07421875 7.90625 C11.03750581 10.60315458 8.22755908 13.6339842 6 18 C5.33941888 23.28464895 7.00908351 27.34675164 8.8359375 32.23828125 C9.11695313 33.02589844 9.39796875 33.81351563 9.6875 34.625 C10.09548828 35.72714844 10.09548828 35.72714844 10.51171875 36.8515625 C11.41038376 40.80568854 9.77101463 43.52311151 8 47 C13.05435088 46.95583725 18.10745366 46.88599571 23.16113281 46.79248047 C24.87978169 46.76427933 26.59856005 46.74306046 28.31738281 46.72900391 C30.79038747 46.70756167 33.26183675 46.66090844 35.734375 46.609375 C36.88459137 46.60753204 36.88459137 46.60753204 38.05804443 46.60565186 C41.71439511 46.50557729 43.63061048 46.29915248 46.51660156 43.96191406 C47.00612305 43.31448242 47.49564453 42.66705078 48 42 C48 43.98 48 45.96 48 48 C32.16 48 16.32 48 0 48 C0 32.16 0 16.32 0 0 Z " fill="#FAFAFA" transform="translate(0,0)"/>
<path d="M0 0 C2.05078125 0.03255208 4.1015625 0.06510417 6.15234375 0.09765625 C6.48234375 1.74765625 6.81234375 3.39765625 7.15234375 5.09765625 C6.16234375 5.42765625 5.17234375 5.75765625 4.15234375 6.09765625 C5.47234375 6.09765625 6.79234375 6.09765625 8.15234375 6.09765625 C9.14234375 8.40765625 10.13234375 10.71765625 11.15234375 13.09765625 C12.12171875 13.07703125 13.09109375 13.05640625 14.08984375 13.03515625 C17.15234375 13.09765625 17.15234375 13.09765625 18.15234375 14.09765625 C17.94378455 17.78220218 17.73375957 20.31508708 15.50390625 23.31640625 C12.39431907 25.67184106 10.56918096 25.47675914 6.71484375 25.28515625 C2.00469844 25.07667094 2.00469844 25.07667094 -2.64453125 25.67578125 C-3.3715625 25.815 -4.09859375 25.95421875 -4.84765625 26.09765625 C-6.66015625 24.66015625 -6.66015625 24.66015625 -7.84765625 23.09765625 C-8.50765625 23.42765625 -9.16765625 23.75765625 -9.84765625 24.09765625 C-12.44784441 20.197374 -11.99851139 16.62331056 -11.84765625 12.09765625 C-11.18765625 11.76765625 -10.52765625 11.43765625 -9.84765625 11.09765625 C-9.51765625 11.42765625 -9.18765625 11.75765625 -8.84765625 12.09765625 C-8.84765625 11.43765625 -8.84765625 10.77765625 -8.84765625 10.09765625 C-7.52765625 10.09765625 -6.20765625 10.09765625 -4.84765625 10.09765625 C-4.84765625 8.77765625 -4.84765625 7.45765625 -4.84765625 6.09765625 C-3.52765625 6.42765625 -2.20765625 6.75765625 -0.84765625 7.09765625 C-1.90036088 5.93954237 -1.90036088 5.93954237 -3.84765625 5.09765625 C-2.72914438 0.14424653 -2.72914438 0.14424653 0 0 Z " fill="#C15229" transform="translate(19.84765625,13.90234375)"/>
<path d="M0 0 C2.5 1.1875 2.5 1.1875 4 3 C4.09375 5.61328125 4.09375 5.61328125 4 8 C2.84371094 8.03867187 2.84371094 8.03867187 1.6640625 8.078125 C0.66117188 8.13484375 -0.34171875 8.1915625 -1.375 8.25 C-2.37273438 8.29640625 -3.37046875 8.3428125 -4.3984375 8.390625 C-7.1526477 8.72160885 -7.1526477 8.72160885 -8.3515625 11.046875 C-8.56554688 11.69140625 -8.77953125 12.3359375 -9 13 C-7.68 13.33 -6.36 13.66 -5 14 C-5.33 14.66 -5.66 15.32 -6 16 C-7.32 15.34 -8.64 14.68 -10 14 C-10 15.32 -10 16.64 -10 18 C-11.32 18 -12.64 18 -14 18 C-13.01 19.65 -12.02 21.3 -11 23 C-14.875 21.125 -14.875 21.125 -16 20 C-16.66 21.32 -17.32 22.64 -18 24 C-19.5915098 19.82228678 -20.71294448 16.45590303 -20 12 C-15.36534578 3.7535118 -9.65728309 -1.09033841 0 0 Z " fill="#645761" transform="translate(25,6)"/>
<path d="M0 0 C0.84691406 0.75216797 0.84691406 0.75216797 1.7109375 1.51953125 C4.46294235 3.29941152 5.4477892 3.19978643 8.625 2.6875 C12.24909239 2.20428768 15.77930192 1.86606073 19.4375 1.8125 C20.64212891 1.79123047 20.64212891 1.79123047 21.87109375 1.76953125 C24 2 24 2 27 4 C27.33 6.31 27.66 8.62 28 11 C17.77 11 7.54 11 -3 11 C-2.34 9.35 -1.68 7.7 -1 6 C-0.62406934 4.0075675 -0.28020455 2.0081326 0 0 Z " fill="#444346" transform="translate(11,36)"/>
<path d="M0 0 C0.226875 0.639375 0.45375 1.27875 0.6875 1.9375 C1.120625 2.618125 1.55375 3.29875 2 4 C3.66500443 4.34153937 5.33178677 4.67449498 7 5 C8.875 6.625 8.875 6.625 10 9 C9.87788777 12.48019859 9.65593246 14.98330469 7.75 17.9375 C5.41628148 19.35440053 3.67863922 19.21718696 1 19 C0.87625 17.329375 0.87625 17.329375 0.75 15.625 C0.42126213 11.94246056 0.42126213 11.94246056 -2.0625 10.5625 C-2.701875 10.376875 -3.34125 10.19125 -4 10 C-3.525625 9.278125 -3.05125 8.55625 -2.5625 7.8125 C-1.05847097 5.10524774 -0.43400818 3.03805725 0 0 Z " fill="#905736" transform="translate(38,28)"/>
<path d="M0 0 C3 0.125 3 0.125 4 1.125 C3.7914408 4.80954593 3.58141582 7.34243083 1.3515625 10.34375 C-1.75802468 12.69918481 -3.58316279 12.50410289 -7.4375 12.3125 C-12.13534736 12.09906527 -12.13534736 12.09906527 -16.765625 12.7265625 C-17.50296875 12.85804687 -18.2403125 12.98953125 -19 13.125 C-21.3125 11.3125 -21.3125 11.3125 -23 9.125 C-23 8.465 -23 7.805 -23 7.125 C-22.34 7.125 -21.68 7.125 -21 7.125 C-21 5.805 -21 4.485 -21 3.125 C-20.34 3.125 -19.68 3.125 -19 3.125 C-18.34 4.445 -17.68 5.765 -17 7.125 C-13.65747276 7.19927838 -11.1964086 7.19046953 -8 6.125 C-8 5.135 -8 4.145 -8 3.125 C-7.01 3.125 -6.02 3.125 -5 3.125 C-4.34 4.775 -3.68 6.425 -3 8.125 C-1.68 7.795 -0.36 7.465 1 7.125 C0.67 5.475 0.34 3.825 0 2.125 C-1.32 1.795 -2.64 1.465 -4 1.125 C-3 0.125 -3 0.125 0 0 Z " fill="#E4C058" transform="translate(34,26.875)"/>
<path d="M0 0 C2.475 0.99 2.475 0.99 5 2 C4.125 6.875 4.125 6.875 3 8 C3.66 8.33 4.32 8.66 5 9 C5.33 8.34 5.66 7.68 6 7 C6 7.66 6 8.32 6 9 C6.99 9.33 7.98 9.66 9 10 C8.67 11.65 8.34 13.3 8 15 C5.125 15.125 5.125 15.125 2 15 C1.34 14.34 0.68 13.68 0 13 C0 12.01 0 11.02 0 10 C-0.66 10 -1.32 10 -2 10 C-2 11.32 -2 12.64 -2 14 C-2.66 14 -3.32 14 -4 14 C-4.33 15.32 -4.66 16.64 -5 18 C-7.60018816 14.09971775 -7.15085514 10.52565431 -7 6 C-6.34 5.67 -5.68 5.34 -5 5 C-4.67 5.33 -4.34 5.66 -4 6 C-4 5.34 -4 4.68 -4 4 C-2.68 4 -1.36 4 0 4 C0 2.68 0 1.36 0 0 Z " fill="#A55B3B" transform="translate(15,20)"/>
<path d="M0 0 C0.99 0.33 1.98 0.66 3 1 C4.6875 4.5625 4.6875 4.5625 6 8 C6.9075 7.67 7.815 7.34 8.75 7 C12 6 12 6 16 6 C15.75 9.375 15.75 9.375 15 13 C12.9375 14.4375 12.9375 14.4375 11 15 C11 14.34 11 13.68 11 13 C8.03 13 5.06 13 2 13 C0.74335022 10.09399739 0 8.20395416 0 5 C-1.98 5.33 -3.96 5.66 -6 6 C-5.67 5.34 -5.34 4.68 -5 4 C-3.35 4 -1.7 4 0 4 C0 2.68 0 1.36 0 0 Z " fill="#45373D" transform="translate(28,15)"/>
<path d="M0 0 C0.99 0.33 1.98 0.66 3 1 C3 1.66 3 2.32 3 3 C3.99 3.33 4.98 3.66 6 4 C6.38063221 6.3260857 6.71269945 8.66055264 7 11 C6 12 6 12 3.4375 12.0625 C2.633125 12.041875 1.82875 12.02125 1 12 C0.67 9.69 0.34 7.38 0 5 C-0.66 5 -1.32 5 -2 5 C-2 4.01 -2 3.02 -2 2 C-1.34 2 -0.68 2 0 2 C0 1.34 0 0.68 0 0 Z " fill="#D17231" transform="translate(38,35)"/>
<path d="M0 0 C0.33 2.31 0.66 4.62 1 7 C-0.98 7 -2.96 7 -5 7 C-4.67 4.69 -4.34 2.38 -4 0 C-5.051875 0.515625 -6.10375 1.03125 -7.1875 1.5625 C-10.48523767 2.99688183 -12.5064368 3.16452107 -16 2 C-15.67 1.01 -15.34 0.02 -15 -1 C-4.44191344 -2.51708428 -4.44191344 -2.51708428 0 0 Z " fill="#1B171A" transform="translate(38,40)"/>
<path d="M0 0 C1.32 0.99 2.64 1.98 4 3 C7.16732421 3.25086724 7.16732421 3.25086724 10 3 C9.67 3.99 9.34 4.98 9 6 C9.33 6.99 9.66 7.98 10 9 C7.14336348 9.95221217 6.73922932 10 4 10 C3.67 9.01 3.34 8.02 3 7 C2.67 7.99 2.34 8.98 2 10 C0.68 10 -0.64 10 -2 10 C-1.34 6.7 -0.68 3.4 0 0 Z " fill="#161517" transform="translate(11,36)"/>
<path d="M0 0 C6.875 0.875 6.875 0.875 8 2 C8 3.65 8 5.3 8 7 C4.37 7 0.74 7 -3 7 C-1 2 -1 2 0 0 Z " fill="#4D393C" transform="translate(21,7)"/>
<path d="M0 0 C0.66 0 1.32 0 2 0 C2.66 1.32 3.32 2.64 4 4 C7.34252724 4.07427838 9.8035914 4.06546953 13 3 C13 2.01 13 1.02 13 0 C13.99 0 14.98 0 16 0 C16 1.98 16 3.96 16 6 C15.24074219 6.06058594 14.48148438 6.12117188 13.69921875 6.18359375 C12.70535156 6.26738281 11.71148437 6.35117187 10.6875 6.4375 C9.70136719 6.51871094 8.71523438 6.59992187 7.69921875 6.68359375 C4.90624401 6.91812559 4.90624401 6.91812559 2 8 C-0.1875 7.0625 -0.1875 7.0625 -2 6 C-2 5.34 -2 4.68 -2 4 C-1.34 4 -0.68 4 0 4 C0 2.68 0 1.36 0 0 Z " fill="#F9DC58" transform="translate(13,30)"/>
<path d="M0 0 C1.25664978 2.90600261 2 4.79604584 2 8 C-3.43440487 9.32841008 -3.43440487 9.32841008 -5.9375 7.875 C-7 6 -7 6 -6.8125 3.375 C-5.47198397 -0.54343148 -4.11813312 0 0 0 Z " fill="#EBEDEA" transform="translate(28,20)"/>
<path d="M0 0 C2.05078125 0.03255208 4.1015625 0.06510417 6.15234375 0.09765625 C6.48234375 1.74765625 6.81234375 3.39765625 7.15234375 5.09765625 C6.36859375 5.40703125 5.58484375 5.71640625 4.77734375 6.03515625 C2.22904247 7.02640663 2.22904247 7.02640663 0.15234375 8.09765625 C0.15234375 7.43765625 0.15234375 6.77765625 0.15234375 6.09765625 C-1.16765625 5.76765625 -2.48765625 5.43765625 -3.84765625 5.09765625 C-2.72914438 0.14424653 -2.72914438 0.14424653 0 0 Z " fill="#E9D151" transform="translate(19.84765625,13.90234375)"/>
<path d="M0 0 C0.99 0.33 1.98 0.66 3 1 C4.625 4.4375 4.625 4.4375 6 8 C6.33 8.66 6.66 9.32 7 10 C5.55802132 11.44197868 3.82308429 12.11786244 2 13 C0.74335022 10.09399739 0 8.20395416 0 5 C-1.98 5.33 -3.96 5.66 -6 6 C-5.67 5.34 -5.34 4.68 -5 4 C-3.35 4 -1.7 4 0 4 C0 2.68 0 1.36 0 0 Z " fill="#504547" transform="translate(28,15)"/>
<path d="M0 0 C0.66 0 1.32 0 2 0 C2 0.66 2 1.32 2 2 C2.66 2 3.32 2 4 2 C4 2.66 4 3.32 4 4 C5.65 4 7.3 4 9 4 C9.33 4.66 9.66 5.32 10 6 C8.68 6 7.36 6 6 6 C6.99 7.65 7.98 9.3 9 11 C5.125 9.125 5.125 9.125 4 8 C3.34 9.32 2.68 10.64 2 12 C0.40861915 7.82262526 -0.21278058 4.46839215 0 0 Z " fill="#514847" transform="translate(5,18)"/>
<path d="M0 0 C2.475 0.99 2.475 0.99 5 2 C4.125 6.875 4.125 6.875 3 8 C1.33382885 8.04063832 -0.33388095 8.042721 -2 8 C-2.66 6.68 -3.32 5.36 -4 4 C-2.68 4 -1.36 4 0 4 C0 2.68 0 1.36 0 0 Z " fill="#ECECEB" transform="translate(15,20)"/>
<path d="M0 0 C0.66 0.33 1.32 0.66 2 1 C1.50769231 7.52307692 1.50769231 7.52307692 -1.0625 9.9375 C-1.701875 10.288125 -2.34125 10.63875 -3 11 C-3 10.01 -3 9.02 -3 8 C-4.65 8.33 -6.3 8.66 -8 9 C-5.68462045 5.27885429 -3.71420527 2.38770339 0 0 Z " fill="#756C75" transform="translate(15,7)"/>
<path d="M0 0 C2.64 0 5.28 0 8 0 C7.38125 0.061875 6.7625 0.12375 6.125 0.1875 C3.76553562 0.81210579 3.76553562 0.81210579 2.875 3.3125 C2.58625 4.199375 2.2975 5.08625 2 6 C0.90915987 8.72710032 0.43742053 9.7426938 -2.125 11.25 C-2.74375 11.4975 -3.3625 11.745 -4 12 C-3.67 11.01 -3.34 10.02 -3 9 C-2.34 9 -1.68 9 -1 9 C-1.20625 8.2575 -1.4125 7.515 -1.625 6.75 C-2.04408751 3.67669159 -1.61949011 2.57213134 0 0 Z " fill="#6D6269" transform="translate(17,6)"/>
<path d="M0 0 C1 2 1 2 1.25 4 C1.84688769 6.28885283 1.84688769 6.28885283 4.5625 7.25 C5.366875 7.4975 6.17125 7.745 7 8 C6.01 8.495 6.01 8.495 5 9 C5 9.99 5 10.98 5 12 C2.03 11.67 -0.94 11.34 -4 11 C-4 10.67 -4 10.34 -4 10 C-2.02 9.67 -0.04 9.34 2 9 C-0.97 8.505 -0.97 8.505 -4 8 C-2.68 5.36 -1.36 2.72 0 0 Z " fill="#59382A" transform="translate(21,21)"/>
<path d="M0 0 C0.33 0 0.66 0 1 0 C1 1.98 1 3.96 1 6 C-6.59 6 -14.18 6 -22 6 C-22 5.67 -22 5.34 -22 5 C-21.44014404 4.9906543 -20.88028809 4.98130859 -20.3034668 4.97167969 C-17.76391854 4.91795493 -15.22620889 4.83431813 -12.6875 4.75 C-11.80642578 4.73582031 -10.92535156 4.72164062 -10.01757812 4.70703125 C-4.95170206 4.68470494 -4.95170206 4.68470494 -0.95703125 1.953125 C-0.64121094 1.30859375 -0.32539062 0.6640625 0 0 Z " fill="#E8E8EA" transform="translate(47,42)"/>
<path d="M0 0 C3.3 0 6.6 0 10 0 C6.09987886 2.92509086 4.61691161 3.47535095 0 4 C0 2.68 0 1.36 0 0 Z " fill="#0C0B11" transform="translate(23,39)"/>
<path d="M0 0 C-0.33 1.32 -0.66 2.64 -1 4 C-4.3 4 -7.6 4 -11 4 C-3.4 -1.7 -3.4 -1.7 0 0 Z " fill="#151418" transform="translate(32,43)"/>
<path d="M0 0 C-0.33 2.31 -0.66 4.62 -1 7 C-1.66 7 -2.32 7 -3 7 C-3.33 5.68 -3.66 4.36 -4 3 C-5.1446875 3.5259375 -5.1446875 3.5259375 -6.3125 4.0625 C-9 5 -9 5 -12 4 C-10.56570999 3.32645501 -9.12742943 2.66140299 -7.6875 2 C-6.88699219 1.62875 -6.08648437 1.2575 -5.26171875 0.875 C-3 0 -3 0 0 0 Z " fill="#737177" transform="translate(34,40)"/>
<path d="M0 0 C3 0.125 3 0.125 4 1.125 C3.71269945 3.46444736 3.38063221 5.7989143 3 8.125 C2.34 7.795 1.68 7.465 1 7.125 C0.375 4.5625 0.375 4.5625 0 2.125 C-1.32 1.795 -2.64 1.465 -4 1.125 C-3 0.125 -3 0.125 0 0 Z " fill="#E3B156" transform="translate(34,26.875)"/>
<path d="M0 0 C4.55384615 -0.36923077 4.55384615 -0.36923077 6.8125 1.5 C7.204375 1.995 7.59625 2.49 8 3 C7.01 4.485 7.01 4.485 6 6 C5.01 5.67 4.02 5.34 3 5 C2.67 4.01 2.34 3.02 2 2 C1.34 1.34 0.68 0.68 0 0 Z " fill="#70666F" transform="translate(26,7)"/>
<path d="M0 0 C0.66 0 1.32 0 2 0 C1.67 1.98 1.34 3.96 1 6 C2.32 6.66 3.64 7.32 5 8 C2.03 7.505 2.03 7.505 -1 7 C-1.33 6.01 -1.66 5.02 -2 4 C-1.34 4 -0.68 4 0 4 C0 2.68 0 1.36 0 0 Z " fill="#F8D969" transform="translate(13,30)"/>
<path d="M0 0 C1.65 0 3.3 0 5 0 C4.01 1.485 4.01 1.485 3 3 C2.01 3 1.02 3 0 3 C-0.33 4.32 -0.66 5.64 -1 7 C-1.66 7 -2.32 7 -3 7 C-1.125 2.25 -1.125 2.25 0 0 Z " fill="#57454B" transform="translate(21,7)"/>
<path d="M0 0 C0.66 0 1.32 0 2 0 C2.33 1.65 2.66 3.3 3 5 C1.02 5.99 1.02 5.99 -1 7 C-1.04254356 5.00045254 -1.04080783 2.99958364 -1 1 C-0.67 0.67 -0.34 0.34 0 0 Z " fill="#372E2F" transform="translate(40,23)"/>
<path d="M0 0 C0.33 0.99 0.66 1.98 1 3 C3.01508358 3.73323796 3.01508358 3.73323796 5 4 C4.67 4.66 4.34 5.32 4 6 C2.68 5.34 1.36 4.68 0 4 C-0.33 4.99 -0.66 5.98 -1 7 C-1 6.34 -1 5.68 -1 5 C-1.66 4.67 -2.32 4.34 -3 4 C-2.01 2.68 -1.02 1.36 0 0 Z " fill="#625851" transform="translate(15,16)"/>
<path d="M0 0 C0.66 0.33 1.32 0.66 2 1 C2 2.65 2 4.3 2 6 C0.35 5.67 -1.3 5.34 -3 5 C-1.125 1.125 -1.125 1.125 0 0 Z " fill="#55464B" transform="translate(27,8)"/>
<path d="M0 0 C0.66 0.33 1.32 0.66 2 1 C1.67 1.66 1.34 2.32 1 3 C1.33 3.99 1.66 4.98 2 6 C1.01 6.33 0.02 6.66 -1 7 C-1.66 5.35 -2.32 3.7 -3 2 C-2.01 1.34 -1.02 0.68 0 0 Z " fill="#0E0C13" transform="translate(19,39)"/>
<path d="M0 0 C0.99 0.33 1.98 0.66 3 1 C3.33 2.98 3.66 4.96 4 7 C3.01 6.67 2.02 6.34 1 6 C0.67 4.02 0.34 2.04 0 0 Z " fill="#EA7A2C" transform="translate(41,38)"/>
<path d="M0 0 C2.31 0 4.62 0 7 0 C6.67 0.99 6.34 1.98 6 3 C4.02 3 2.04 3 0 3 C0 2.01 0 1.02 0 0 Z " fill="#BD6E3E" transform="translate(17,32)"/>
<path d="M0 0 C0 1.65 0 3.3 0 5 C-0.66 4.67 -1.32 4.34 -2 4 C-2 3.34 -2 2.68 -2 2 C-4.31 2.33 -6.62 2.66 -9 3 C-8 1 -8 1 -6.1875 0.375 C-4 0 -4 0 0 0 Z " fill="#4C4149" transform="translate(44,21)"/>
<path d="M0 0 C-1 3 -1 3 -3.0625 4.1875 C-3.701875 4.455625 -4.34125 4.72375 -5 5 C-5.33 3.68 -5.66 2.36 -6 1 C-4 0 -4 0 0 0 Z " fill="#BDBBBB" transform="translate(28,20)"/>
<path d="M0 0 C2 3 2 3 3 6 C3.66 6.66 4.32 7.32 5 8 C4 9 4 9 1.4375 9.0625 C0.633125 9.041875 -0.17125 9.02125 -1 9 C-0.34 8.67 0.32 8.34 1 8 C0.67 5.36 0.34 2.72 0 0 Z " fill="#905232" transform="translate(40,38)"/>
<path d="M0 0 C1.98 0 3.96 0 6 0 C5.67 1.32 5.34 2.64 5 4 C4.34 4 3.68 4 3 4 C3 3.34 3 2.68 3 2 C2.34 2 1.68 2 1 2 C0.67 2.66 0.34 3.32 0 4 C0 2.68 0 1.36 0 0 Z " fill="#FCDE4C" transform="translate(19,15)"/>
<path d="M0 0 C2.64 0 5.28 0 8 0 C8.33 1.65 8.66 3.3 9 5 C8.01 5 7.02 5 6 5 C6.33 3.68 6.66 2.36 7 1 C4.69 1 2.38 1 0 1 C0 0.67 0 0.34 0 0 Z " fill="#CAB04C" transform="translate(18,14)"/>
<path d="M0 0 C0.33 0 0.66 0 1 0 C1 1.98 1 3.96 1 6 C-0.98 6 -2.96 6 -5 6 C-3.35830472 3.97945196 -1.69088222 1.97956942 0 0 Z " fill="#F5F5F5" transform="translate(47,42)"/>
<path d="M0 0 C0.33 0.66 0.66 1.32 1 2 C1.99 2.33 2.98 2.66 4 3 C4 3.33 4 3.66 4 4 C1.36 4.33 -1.28 4.66 -4 5 C-3.67 4.01 -3.34 3.02 -3 2 C-2.01 2 -1.02 2 0 2 C0 1.34 0 0.68 0 0 Z " fill="#D67445" transform="translate(20,27)"/>
<path d="M0 0 C-0.33 1.32 -0.66 2.64 -1 4 C-2.65 3.67 -4.3 3.34 -6 3 C-6 2.34 -6 1.68 -6 1 C-3 0 -3 0 0 0 Z " fill="#6A5F6A" transform="translate(12,15)"/>
</svg>
