<?xml version="1.0" encoding="UTF-8"?>
<svg version="1.1" xmlns="http://www.w3.org/2000/svg" width="16" height="16">
<path d="M0 0 C5.28 0 10.56 0 16 0 C16 5.28 16 10.56 16 16 C10.72 16 5.44 16 0 16 C0 10.72 0 5.44 0 0 Z " fill="#9D7C57" transform="translate(0,0)"/>
<path d="M0 0 C5.28 0 10.56 0 16 0 C16 3.96 16 7.92 16 12 C15.34 11.67 14.68 11.34 14 11 C14.0825 10.236875 14.165 9.47375 14.25 8.6875 C14.2683069 5.91827521 14.2683069 5.91827521 12.3125 4.1875 C9.60710524 2.79824323 8.00198512 2.60500196 5 3 C2.72783152 4.83737827 2.72783152 4.83737827 2.8046875 7.6015625 C2.82789063 8.59929688 2.85109375 9.59703125 2.875 10.625 C2.89304688 11.62789062 2.91109375 12.63078125 2.9296875 13.6640625 C2.95289063 14.43492188 2.97609375 15.20578125 3 16 C2.01 16 1.02 16 0 16 C0 10.72 0 5.44 0 0 Z " fill="#F7F7F6" transform="translate(0,0)"/>
<path d="M0 0 C3.45680144 0.18855281 6.07119139 0.39046935 9 2.3125 C10 4 10 4 9.6875 6.1875 C9.3471875 7.0846875 9.3471875 7.0846875 9 8 C6.525 7.01 6.525 7.01 4 6 C4 5.01 4 4.02 4 3 C2.68 3 1.36 3 0 3 C0 3.99 0 4.98 0 6 C-0.99 6 -1.98 6 -3 6 C-2.42655063 3.13275314 -2.1385485 2.1385485 0 0 Z " fill="#685C60" transform="translate(5,2)"/>
<path d="M0 0 C2.475 0.495 2.475 0.495 5 1 C4.67 2.32 4.34 3.64 4 5 C2.68 4.67 1.36 4.34 0 4 C0 2.68 0 1.36 0 0 Z " fill="#544B53" transform="translate(10,5)"/>
</svg>
